<?xml version="1.0" standalone="no"?>
<!DOCTYPE svg PUBLIC "-//W3C//DTD SVG 20010904//EN"
 "http://www.w3.org/TR/2001/REC-SVG-20010904/DTD/svg10.dtd">
<svg version="1.0" xmlns="http://www.w3.org/2000/svg"
 width="700.000000pt" height="700.000000pt" viewBox="0 0 700.000000 700.000000"
 preserveAspectRatio="xMidYMid meet">
<metadata>
Created by potrace 1.11, written by Peter Selinger 2001-2013
</metadata>
<g transform="translate(0.000000,700.000000) scale(0.100000,-0.100000)"
fill="#000000" stroke="none">
<path d="M3691 5734 c-128 -34 -223 -96 -351 -230 -81 -84 -208 -247 -297
-379 -101 -151 -285 -474 -432 -757 l-90 -174 144 -71 144 -72 87 167 c281
540 517 908 699 1088 158 157 269 156 401 -4 85 -104 378 -531 369 -540 -1 -2
-28 9 -60 23 -32 14 -59 25 -61 25 -5 0 -134 -271 -134 -282 0 -8 138 -77 566
-283 l150 -72 139 379 c82 226 135 382 129 388 -7 6 -278 110 -288 110 -2 0
-22 -54 -46 -119 l-43 -119 -40 66 c-159 267 -410 615 -513 712 -145 136 -313
187 -473 144z"/>
<path d="M1806 3977 c-6 -19 -27 -299 -23 -304 2 -2 80 -10 173 -19 93 -8 170
-16 171 -18 2 -2 -38 -68 -87 -147 -91 -145 -248 -445 -290 -555 -112 -292
-140 -455 -106 -615 32 -149 124 -268 258 -333 159 -78 242 -85 1001 -93 l588
-6 -3 159 -3 159 -525 7 c-603 7 -803 18 -883 48 -91 34 -121 81 -121 190 1
135 62 314 193 575 48 94 94 181 104 195 17 24 17 22 17 -78 l0 -102 160 0
160 0 -2 443 -3 442 -315 26 c-173 15 -348 29 -388 33 -53 4 -74 3 -76 -7z"/>
<path d="M4978 3902 l-137 -67 93 -200 c311 -669 378 -903 310 -1074 -24 -61
-101 -124 -192 -160 -150 -57 -384 -105 -578 -117 l-109 -7 21 24 c109 126
175 212 168 219 -42 40 -230 190 -239 190 -9 0 -497 -581 -502 -598 -1 -4 114
-125 255 -270 l257 -262 113 111 113 110 -70 78 -70 78 100 7 c254 16 546 82
714 160 288 135 410 393 350 742 -30 169 -134 440 -350 912 -49 105 -94 192
-99 192 -6 0 -73 -31 -148 -68z"/>
</g>
</svg>
