<svg xmlns="http://www.w3.org/2000/svg" viewBox="0 0 97.1 102.15"><defs><style>.cls-1{fill:none;stroke:#fff;stroke-miterlimit:10;stroke-width:8px;}</style></defs><title>Asset 2</title><g id="Layer_2" data-name="Layer 2"><g id="Layer_1-2" data-name="Layer 1"><path class="cls-1" d="M45.4,90.7s-22.12.1-31.48-.6c-4.07-.3-13.27-2-8.65-15.88C9.06,62.79,16.94,52,19.69,48.41"/><polyline class="cls-1" points="19.69 66.28 19.69 48.41 4.11 47.08"/><path class="cls-1" d="M25.46,39.8S34.25,22,40.46,14c2.71-3.51,11-16.47,20.2-6,3.46,4,14.66,20.55,15.41,25.21"/><polyline class="cls-1" points="62.39 26.57 76.07 33.24 81.43 18.62"/><path class="cls-1" d="M82.24,45.28s7.27,15,9.57,22.32c3.49,11-.57,15.88-6.55,18.18C75.15,89.67,62.81,89.22,58.68,89"/><polyline class="cls-1" points="68.73 76.87 58.68 88.97 68.73 99.37"/></g></g></svg>