<svg xmlns="http://www.w3.org/2000/svg" viewBox="0 0 200 200"><defs><style>.cls-1{fill:#fff;}.cls-2{fill:none;stroke:#000;stroke-miterlimit:10;stroke-width:9px;}</style></defs><title>Asset 4</title><g id="Layer_2" data-name="Layer 2"><g id="Layer_1-2" data-name="Layer 1"><rect class="cls-1" width="200" height="200" rx="23.16"/><path class="cls-2" d="M99.5,141.5s-25.81.12-36.73-.69c-4.76-.36-15.49-2.32-10.1-18.54,4.43-13.34,13.62-26,16.83-30.13"/><polyline class="cls-2" points="69.5 113 69.5 92.14 51.32 90.6"/><path class="cls-2" d="M76.23,82.1S86.49,61.38,93.74,52c3.16-4.09,12.87-19.23,23.57-6.95,4,4.63,17.11,24,18,29.41"/><polyline class="cls-2" points="119.33 66.65 135.3 74.44 141.55 57.38"/><path class="cls-2" d="M142.5,88.5s8.48,17.55,11.17,26c4.07,12.83-.67,18.54-7.64,21.22-11.8,4.54-26.21,4-31,3.72"/><polyline class="cls-2" points="126.74 125.36 115 139.48 126.74 151.62"/></g></g></svg>