<?xml version="1.0" encoding="UTF-8" standalone="no"?>
<!DOCTYPE svg PUBLIC "-//W3C//DTD SVG 1.1//EN" "http://www.w3.org/Graphics/SVG/1.1/DTD/svg11.dtd">
<svg width="100%" height="100%" viewBox="0 0 709 709" version="1.1" xmlns="http://www.w3.org/2000/svg" xmlns:xlink="http://www.w3.org/1999/xlink" xml:space="preserve" xmlns:serif="http://www.serif.com/" style="fill-rule:evenodd;fill:black;clip-rule:evenodd;stroke-linecap:round;stroke-linejoin:round;stroke-miterlimit:1.5;">
    <g id="Logo" transform="matrix(1,0,0,1,-1334.05,-443.181)">
        <path d="M1422.38,818.449L1526.57,944.767C1535.54,955.648 1548.91,961.95 1563.01,961.95L1813.74,961.95C1827.85,961.95 1841.21,955.648 1850.19,944.767L1954.37,818.449L1971.26,838.918C1978.46,847.646 1978.46,860.252 1971.26,868.979C1944,902.025 1879.01,980.829 1850.19,1015.77C1841.21,1026.65 1827.85,1032.95 1813.74,1032.95C1758.9,1032.95 1617.85,1032.95 1563.01,1032.95C1548.91,1032.95 1535.54,1026.65 1526.57,1015.77C1497.75,980.829 1432.76,902.025 1405.5,868.979C1398.3,860.252 1398.3,847.646 1405.5,838.918L1422.38,818.449Z" style="stroke:black;stroke-width:8.33px;"/>
        <path d="M1963.87,758.958L1971.26,767.918C1978.46,776.646 1978.46,789.252 1971.26,797.979C1944,831.025 1879.01,909.829 1850.19,944.767C1841.21,955.648 1827.85,961.95 1813.74,961.95C1758.9,961.95 1617.85,961.95 1563.01,961.95C1548.91,961.95 1535.54,955.648 1526.57,944.767C1497.75,909.829 1432.76,831.025 1405.5,797.979C1398.3,789.252 1398.3,776.646 1405.5,767.918L1412.82,759.04" style="fill:none;stroke:black;stroke-width:8.33px;"/>
        <g transform="matrix(1,0,0,1,774,-336)">
            <g transform="matrix(0.419661,0,0,0.418536,334.961,684.242)">
                <path d="M1061.84,1226.95C767.841,869.15 1061.32,1226.27 767.321,868.947" style="fill:none;stroke:black;stroke-width:79.54px;"/>
            </g>
            <g transform="matrix(0.56542,0,0,0.563905,266.012,505.881)">
                <path d="M1061.84,1226.95C767.841,869.15 1061.32,1226.27 767.321,868.947" style="fill:none;stroke:black;stroke-width:59.03px;"/>
            </g>
            <g transform="matrix(0.264641,0,0,0.263932,670.431,873.934)">
                <path d="M1061.84,1226.95C767.841,869.15 1061.32,1226.27 767.321,868.947" style="fill:none;stroke:black;stroke-width:126.13px;"/>
            </g>
            <g transform="matrix(0.264641,0,0,0.263932,539.314,714.982)">
                <path d="M1061.84,1226.95C767.841,869.15 1061.32,1226.27 767.321,868.947" style="fill:none;stroke:black;stroke-width:126.13px;"/>
            </g>
            <g transform="matrix(4.01027e-06,0,0,3.99953e-06,846.821,1070.94)">
                <path d="M1061.84,1226.95C767.841,869.15 1061.32,1226.27 767.321,868.947" style="fill:none;stroke:black;stroke-width:-2.14748e+06px;"/>
            </g>
            <g transform="matrix(0.837023,0,0,0.837023,149.056,170.792)">
                <path d="M1061.84,1226.95C767.841,869.15 1061.32,1226.27 767.321,868.947" style="fill:none;stroke:black;stroke-width:39.82px;"/>
            </g>
            <g transform="matrix(0.709799,0,0,0.707912,332.778,282.934)">
                <path d="M1061.84,1226.95C767.841,869.15 1061.32,1226.27 767.321,868.947" style="fill:none;stroke:black;stroke-width:47.02px;"/>
            </g>
            <g transform="matrix(0.565365,0,0,0.563861,528.646,408.107)">
                <path d="M1061.84,1226.95C767.841,869.15 1061.32,1226.27 767.321,868.947" style="fill:none;stroke:black;stroke-width:59.04px;"/>
            </g>
            <g transform="matrix(0.565365,0,0,0.563861,528.646,408.107)">
                <path d="M1061.84,1226.95C767.841,869.15 1061.32,1226.27 767.321,868.947" style="fill:none;stroke:black;stroke-width:59.04px;"/>
            </g>
            <g transform="matrix(0.419974,0,0,0.418858,725.865,534.108)">
                <path d="M1061.84,1226.95C767.841,869.15 1061.32,1226.27 767.321,868.947" style="fill:none;stroke:black;stroke-width:79.48px;"/>
            </g>
        </g>
    </g>
</svg>
