<?xml version="1.0" encoding="UTF-8" standalone="no"?>
<!DOCTYPE svg PUBLIC "-//W3C//DTD SVG 1.1//EN" "http://www.w3.org/Graphics/SVG/1.1/DTD/svg11.dtd">
<svg width="100%" height="100%" viewBox="0 0 709 709" version="1.1" xmlns="http://www.w3.org/2000/svg" xmlns:xlink="http://www.w3.org/1999/xlink" xml:space="preserve" xmlns:serif="http://www.serif.com/" style="fill-rule:evenodd;fill:white;clip-rule:evenodd;stroke-linecap:round;stroke-linejoin:round;stroke-miterlimit:1.5;">
    <rect x="0" y="0" width="708.661" height="708.661" style="fill:none;"/>
    <g id="Logo_millable" transform="matrix(1,0,0,1,-1334.05,-443.181)">
        <g transform="matrix(1,0,0,1,-844.559,326.563)">
            <path d="M2658.3,635.387C2660.72,635.387 2663.13,635.201 2665.49,634.838C2666.13,634.738 2666.78,634.626 2667.41,634.501L2667.73,634.437C2667.84,634.415 2667.94,634.393 2668.05,634.371L2668.32,634.313C2668.6,634.251 2668.89,634.187 2669.17,634.119C2671.37,633.601 2673.51,632.927 2675.6,632.106C2675.76,632.042 2675.92,631.978 2676.08,631.913C2678.13,631.08 2680.12,630.105 2682.03,628.994C2682.17,628.916 2682.3,628.836 2682.44,628.757C2683.36,628.207 2684.27,627.626 2685.16,627.013C2685.33,626.89 2685.51,626.765 2685.69,626.639L2685.95,626.451C2685.95,626.451 2686.21,626.26 2686.21,626.26L2686.37,626.145C2686.75,625.862 2687.13,625.574 2687.51,625.28C2687.93,624.945 2688.35,624.603 2688.76,624.253L2689.01,624.043L2689.06,624.002C2689.62,623.521 2690.17,623.026 2690.71,622.518C2690.87,622.369 2691.03,622.218 2691.18,622.066C2691.89,621.384 2692.57,620.677 2693.24,619.948C2693.38,619.786 2693.53,619.622 2693.68,619.458L2693.89,619.211L2693.95,619.148C2694.22,618.838 2694.48,618.523 2694.75,618.204L2798.93,491.886L2815.82,512.356C2823.01,521.083 2823.01,533.689 2815.82,542.416C2788.56,575.462 2723.56,654.266 2694.75,689.204C2685.77,700.085 2672.41,706.387 2658.3,706.387C2603.46,706.387 2462.41,706.387 2407.57,706.387C2393.47,706.387 2380.1,700.085 2371.13,689.204C2342.31,654.266 2277.31,575.462 2250.06,542.416C2242.86,533.689 2242.86,521.083 2250.06,512.356L2266.94,491.886L2371.13,618.204C2371.31,618.429 2371.5,618.652 2371.69,618.874L2371.76,618.961L2371.98,619.211L2372.2,619.458C2372.27,619.54 2372.34,619.622 2372.42,619.704L2372.53,619.83C2373.54,620.948 2374.6,622.013 2375.7,623.021C2376.01,623.295 2376.31,623.565 2376.61,623.83L2376.86,624.043C2377.19,624.325 2377.52,624.602 2377.86,624.875L2378.11,625.078C2379.04,625.82 2380,626.526 2380.98,627.194C2383.19,628.696 2385.51,630.007 2387.93,631.112L2388.01,631.147L2388.31,631.28C2388.78,631.494 2389.27,631.7 2389.75,631.898L2389.79,631.913L2390.09,632.033L2390.26,632.099C2390.67,632.262 2391.09,632.42 2391.51,632.572L2391.6,632.605L2391.9,632.713L2392.21,632.819C2392.41,632.89 2392.62,632.958 2392.82,633.026L2393.13,633.125C2393.74,633.323 2394.37,633.508 2394.99,633.681L2395.3,633.766C2396.44,634.071 2397.58,634.334 2398.74,634.555C2399.07,634.618 2399.41,634.678 2399.74,634.734L2400.06,634.787L2400.13,634.797C2400.43,634.845 2400.73,634.89 2401.03,634.932C2402,635.068 2402.97,635.174 2403.95,635.249C2404.17,635.265 2404.39,635.281 2404.61,635.294L2404.94,635.314C2405.16,635.326 2405.38,635.337 2405.6,635.346L2405.92,635.359L2406.25,635.369C2406.69,635.381 2407.13,635.387 2407.57,635.387L2658.3,635.387Z" style="stroke:white;stroke-width:8.33px;"/>
        </g>
        <g transform="matrix(1,0,0,1,774,-336)">
            <g transform="matrix(0.419661,0,0,0.418536,334.961,684.242)">
                <path d="M1061.84,1226.95C767.841,869.15 1061.32,1226.27 767.321,868.947" style="fill:none;stroke:white;stroke-width:79.54px;"/>
            </g>
            <g transform="matrix(0.56542,0,0,0.563905,266.012,505.881)">
                <path d="M1061.84,1226.95C767.841,869.15 1061.32,1226.27 767.321,868.947" style="fill:none;stroke:white;stroke-width:59.03px;"/>
            </g>
            <g transform="matrix(0.264641,0,0,0.263932,670.431,873.934)">
                <path d="M1061.84,1226.95C767.841,869.15 1061.32,1226.27 767.321,868.947" style="fill:none;stroke:white;stroke-width:126.13px;"/>
            </g>
            <g transform="matrix(0.264641,0,0,0.263932,539.314,714.982)">
                <path d="M1061.84,1226.95C767.841,869.15 1061.32,1226.27 767.321,868.947" style="fill:none;stroke:white;stroke-width:126.13px;"/>
            </g>
            <g transform="matrix(4.01027e-06,0,0,3.99953e-06,846.821,1070.94)">
                <path d="M1061.84,1226.95C767.841,869.15 1061.32,1226.27 767.321,868.947" style="fill:none;stroke:white;stroke-width:-2.14748e+06px;"/>
            </g>
            <g transform="matrix(0.837023,0,0,0.837023,149.056,170.792)">
                <path d="M1061.84,1226.95C767.841,869.15 1061.32,1226.27 767.321,868.947" style="fill:none;stroke:white;stroke-width:39.82px;"/>
            </g>
            <g transform="matrix(0.709799,0,0,0.707912,332.778,282.934)">
                <path d="M1061.84,1226.95C767.841,869.15 1061.32,1226.27 767.321,868.947" style="fill:none;stroke:white;stroke-width:47.02px;"/>
            </g>
            <g transform="matrix(0.565365,0,0,0.563861,528.646,408.107)">
                <path d="M1061.84,1226.95C767.841,869.15 1061.32,1226.27 767.321,868.947" style="fill:none;stroke:white;stroke-width:59.04px;"/>
            </g>
            <g transform="matrix(0.565365,0,0,0.563861,528.646,408.107)">
                <path d="M1061.84,1226.95C767.841,869.15 1061.32,1226.27 767.321,868.947" style="fill:none;stroke:white;stroke-width:59.04px;"/>
            </g>
            <g transform="matrix(0.419974,0,0,0.418858,725.865,534.108)">
                <path d="M1061.84,1226.95C767.841,869.15 1061.32,1226.27 767.321,868.947" style="fill:none;stroke:white;stroke-width:79.48px;"/>
            </g>
        </g>
    </g>
</svg>
