<svg xmlns="http://www.w3.org/2000/svg" viewBox="0 0 175.43 56.67"><defs><style>.cls-1{font-size:50px;font-family:DINAlternate-Bold, DIN Alternate;font-weight:700;}.cls-2{fill:none;stroke:#000;stroke-miterlimit:10;stroke-width:4px;}</style></defs><title>Asset 1</title><g id="Layer_2" data-name="Layer 2"><g id="Layer_1-2" data-name="Layer 1"><text class="cls-1" transform="translate(0 42.94)">Open</text><path class="cls-2" d="M147.55,50.43s-12,.06-17.08-.32c-2.21-.17-7.21-1.08-4.7-8.62a52.13,52.13,0,0,1,7.83-14"/><polyline class="cls-2" points="133.6 37.18 133.6 27.48 125.14 26.76"/><path class="cls-2" d="M136.73,22.81s4.77-9.63,8.14-14c1.47-1.91,6-8.94,11-3.24,1.88,2.16,7.95,11.15,8.36,13.68"/><polyline class="cls-2" points="156.77 15.63 164.19 19.25 167.1 11.32"/><path class="cls-2" d="M167.54,25.79s3.94,8.16,5.2,12.11c1.89,6-.32,8.62-3.56,9.86-5.49,2.11-12.19,1.87-14.43,1.73"/><polyline class="cls-2" points="160.21 42.93 154.75 49.49 160.21 55.14"/></g></g></svg>