<svg xmlns="http://www.w3.org/2000/svg" viewBox="0 0 113 61" enable-background="new 0 0 113 61" width="95" height="50"><style type="text/css">.st0{fill:#164194;} .st1{fill:#FFED00;}</style><path id="XMLID_38_" d="M33 47.7v-6.8h4.3v.8h-3.4v1.9h3.2v.8h-3.2v2.5h3.4v.8h-4.3zm9.3 0h-.9v-.6c-.3.2-.5.4-.8.5-.2.1-.5.2-.8.2-.2 0-.4 0-.6-.1s-.4-.2-.5-.3c-.1-.2-.3-.4-.3-.6-.1-.2-.1-.5-.1-.9v-3.3h.9v3.6l.1.5.3.3c.1.1.3.1.5.1s.4-.1.7-.2l.7-.4v-3.8h.9l-.1 5zm4-4.1h-.6c-.2 0-.5.1-.7.2l-.7.4v3.6h-.9v-5.1h.9v.8c.3-.3.6-.5.8-.6.2-.1.5-.2.7-.2h.4v.9h.1zm4.9 1.6c0 .9-.2 1.5-.6 2-.4.5-1 .7-1.7.7s-1.3-.2-1.7-.7c-.4-.5-.6-1.1-.6-2s.2-1.5.6-2c.4-.5 1-.7 1.7-.7s1.3.2 1.7.7.6 1.1.6 2zm-.9 0c0-.7-.1-1.2-.4-1.5-.2-.3-.6-.5-1-.5-.5 0-.8.2-1.1.5-.2.3-.4.8-.4 1.5 0 .6.1 1.1.4 1.5.2.3.6.5 1.1.5.4 0 .8-.2 1-.5.3-.4.4-.9.4-1.5zm6.1-.2c0 .9-.2 1.5-.6 2s-.9.8-1.6.8c-.3 0-.5 0-.7-.1-.2-.1-.4-.1-.6-.3v2.1h-.9v-7h.9v.5c.2-.2.5-.4.7-.5.3-.1.6-.2.9-.2.6 0 1.1.2 1.4.7.3.6.5 1.3.5 2zm-.9.1c0-.6-.1-1-.3-1.4-.2-.3-.5-.5-.9-.5-.2 0-.5.1-.7.2-.2.1-.4.2-.7.4v2.9c.2.1.4.2.6.2s.3.1.6.1c.5 0 .8-.2 1.1-.5.2-.2.3-.7.3-1.4zm4.7 2.1l-.3.2c-.1.1-.2.2-.3.2-.2.1-.3.1-.4.2-.1 0-.3.1-.6.1-.2 0-.4 0-.6-.1-.2-.1-.4-.2-.5-.3-.1-.1-.3-.3-.3-.5-.2-.3-.2-.5-.2-.7 0-.4.1-.7.2-.9.2-.2.4-.4.7-.6.3-.1.6-.2 1-.3.4-.1.8-.1 1.3-.1v-.2c0-.2 0-.4-.1-.5s-.1-.2-.3-.3c-.1-.1-.2-.1-.4-.1h-.5c-.2 0-.4 0-.7.1-.3.1-.5.1-.8.3h-.1v-.9c.2 0 .4-.1.7-.2.3-.1.6-.1.9-.1.4 0 .7 0 .9.1l.7.3s.3.3.4.5c.1.2.1.5.1.8v3.5h-.9l.1-.5zm-1.6-5.4h-.9v-.9h.9v.9zm1.6 4.7v-1.4c-.2 0-.5 0-.8.1-.3 0-.6.1-.8.1l-.6.3c-.2.1-.2.3-.2.6s.1.5.3.7c.2.2.4.2.7.2.3 0 .5-.1.7-.2.3-.1.5-.2.7-.4zm.4-4.7h-.9v-.9h.9v.9zm2.7 0h-1v-.9h1v.9zm-.1 5.9h-.9v-5.1h.9v5.1zm2.7.2c-.3 0-.7 0-1-.1s-.6-.2-.8-.3v-1l.3.2c.1.1.2.1.4.2.1.1.3.1.5.2s.4.1.6.1h.4c.2 0 .3-.1.4-.1.1-.1.2-.1.2-.2s.1-.2.1-.4-.1-.4-.2-.5c-.1-.1-.3-.2-.6-.3l-.4-.1-.5-.1c-.4-.1-.7-.3-.9-.5s-.3-.5-.3-.9c0-.5.2-.8.5-1.1.4-.3.8-.4 1.4-.4.3 0 .6 0 .9.1.3.1.5.2.7.3v.9c-.2-.2-.5-.3-.7-.4-.3-.1-.5-.2-.8-.2s-.5.1-.7.2c-.2.1-.3.3-.3.5s.1.4.2.5c.1.1.3.2.6.3l.4.1.5.1c.4.1.7.3.9.5.2.2.3.5.3.9 0 .2 0 .4-.1.6-.1.2-.2.4-.4.5-.2.2-.4.3-.6.3-.4 0-.7.1-1 .1zm4.9 0c-.4 0-.7-.1-1-.2-.3-.1-.6-.3-.8-.5s-.4-.5-.5-.8-.2-.7-.2-1.2.1-.8.2-1.2c.1-.3.3-.6.5-.8s.5-.4.8-.5c.3-.1.6-.2 1-.2.3 0 .6 0 .8.1.3.1.5.2.7.3v1l-.2-.2c-.1-.1-.2-.1-.4-.2l-.4-.2-.5-.1c-.5 0-.8.2-1.1.5s-.4.8-.4 1.4c0 .6.1 1.1.4 1.4.3.3.6.5 1.1.5.3 0 .6-.1.8-.2.3-.1.5-.3.7-.4v1l-.3.1c-.1.1-.2.1-.4.1l-.4.1c-.1.2-.2.2-.4.2zm6.4-.2h-.9v-3.5999999999999996c0-.2-.1-.4-.1-.5l-.3-.3c-.1-.1-.3-.1-.5-.1s-.4.1-.7.2l-.7.4v3.8h-.9v-7.1h.9v2.6c.3-.2.5-.4.8-.5.3-.1.5-.2.8-.2.5 0 .9.2 1.2.5.3.3.4.8.4 1.4v3.4zm3.4.2c-.8 0-1.5-.2-1.9-.7-.5-.5-.7-1.1-.7-2 0-.8.2-1.5.7-2 .4-.5 1-.7 1.7-.7.3 0 .6 0 .9.1.2.1.5.2.6.4.2.2.3.4.4.7.1.3.1.6.1 1v.5h-3.6c0 .6.2 1.1.5 1.4.3.3.7.5 1.3.5.2 0 .4 0 .6-.1.2 0 .4-.1.5-.2.2-.1.3-.1.4-.2l.3-.2h.1v.9c-.1 0-.2.1-.4.1-.2.1-.3.1-.4.1l-.5.1c-.2.3-.4.3-.6.3zm1.1-3.3c0-.2 0-.4-.1-.6 0-.2-.1-.3-.2-.4-.1-.1-.2-.2-.4-.3-.2-.1-.4-.1-.6-.1s-.4 0-.6.1c-.2.1-.3.2-.4.3l-.3.4c-.1.2-.1.4-.1.6h2.7zm-46.3 13.7c-.4 0-.8-.1-1.1-.2-.3-.1-.5-.3-.7-.5-.2-.2-.4-.5-.5-.9-.1-.3-.2-.7-.2-1.2v-4.3h.9v4.3c0 .3 0 .6.1.8 0 .2.1.4.2.6.1.2.3.3.5.4.2.1.5.1.8.1.3 0 .5 0 .8-.1.2-.1.4-.2.5-.4.1-.2.2-.4.2-.6.1-.2.1-.4.1-.7v-4.3h.9v4.3c0 .5 0 .9-.1 1.2-.1.3-.3.6-.5.9l-.8.4c-.3.1-.7.2-1.1.2zm7.8-.2h-.9v-3.5999999999999996c0-.2-.1-.4-.1-.5l-.3-.3c-.1-.1-.3-.1-.5-.1s-.4.1-.7.2l-.7.4v3.8h-.9v-5h.9v.6c.3-.2.5-.4.8-.5s.5-.2.8-.2c.5 0 .9.2 1.2.5s.4.8.4 1.4v3.3zm2.2-6h-1v-.9h1v.9zm-.1 6h-.9v-5.1h.9v5.1zm5.6-2.5c0 .9-.2 1.5-.6 2s-1 .7-1.7.7-1.3-.2-1.7-.7c-.4-.5-.6-1.1-.6-2s.2-1.5.6-2 1-.7 1.7-.7 1.3.2 1.7.7c.4.4.6 1.1.6 2zm-.9 0c0-.7-.1-1.2-.4-1.5-.2-.3-.6-.5-1-.5-.5 0-.8.2-1 .5-.2.3-.4.8-.4 1.5 0 .6.1 1.1.4 1.5.2.3.6.5 1 .5s.8-.2 1-.5c.2-.4.4-.9.4-1.5zm5.8 2.5h-.8v-3.5999999999999996c0-.2-.1-.4-.1-.5l-.3-.3c-.1-.1-.3-.1-.5-.1s-.4.1-.7.2l-.7.4v3.8h-.9v-5h.9v.6c.3-.2.5-.4.8-.5.3-.1.5-.2.8-.2.5 0 .9.2 1.2.5.3.3.4.8.4 1.4l-.1 3.3z"/><path id="XMLID_37_" class="st0" d="M32.8 2.8h49.6v33.1h-49.6v-33.1z"/><path id="XMLID_36_" class="st1" d="M48 11.7l.4 1.1 1.3.1-1 .7.3 1.2-1-.7-1 .7.4-1.2-1-.7 1.2-.1.4-1.1z"/><path id="XMLID_33_" class="st1" d="M48 11.7l.4 1.1 1.3.1-1 .7.3 1.2-1-.7-1 .7.4-1.2-1-.7 1.2-.1.4-1.1zm4.1-4.1l.4 1.2h1.2l-1 .8.4 1.2-1-.7-1.1.7.4-1.2-1-.8h1.3l.4-1.2z"/><path id="XMLID_30_" class="st1" d="M52.1 7.6l.4 1.2h1.2l-1 .8.4 1.2-1-.7-1.1.7.4-1.2-1-.8h1.3l.4-1.2zm5.6-1.4l.4 1.1 1.2.1-1 .7.4 1.2-1-.7-1.1.7.4-1.2-1-.7 1.3-.1.4-1.1z"/><path id="XMLID_27_" class="st1" d="M57.7 6.2l.4 1.1 1.2.1-1 .7.4 1.2-1-.7-1.1.7.4-1.2-1-.7 1.3-.1.4-1.1zm5.5 1.4l.4 1.2h1.3l-1 .8.3 1.2-1-.7-1 .7.3-1.2-1-.8h1.3l.4-1.2z"/><path id="XMLID_24_" class="st1" d="M63.2 7.6l.4 1.2h1.3l-1 .8.3 1.2-1-.7-1 .7.3-1.2-1-.8h1.3l.4-1.2zm4.1 4.1l.4 1.1 1.2.1-1 .7.4 1.2-1-.7-1.1.7.4-1.2-1-.7 1.2-.1.5-1.1z"/><path id="XMLID_21_" class="st1" d="M67.3 11.7l.4 1.1 1.2.1-1 .7.4 1.2-1-.7-1.1.7.4-1.2-1-.7 1.2-.1.5-1.1zm1.4 5.7l.4 1.2h1.3l-1 .7.4 1.2-1.1-.7-1 .7.4-1.2-1-.7h1.2l.4-1.2z"/><path id="XMLID_18_" class="st1" d="M68.7 17.4l.4 1.2h1.3l-1 .7.4 1.2-1.1-.7-1 .7.4-1.2-1-.7h1.2l.4-1.2zm-1.4 5.5l.4 1.1 1.2.1-1 .7.4 1.2-1-.7-1.1.7.4-1.2-1-.7 1.2-.1.5-1.1z"/><path id="XMLID_15_" class="st1" d="M67.3 22.9l.4 1.1 1.2.1-1 .7.4 1.2-1-.7-1.1.7.4-1.2-1-.7 1.2-.1.5-1.1zm-4.1 4.1l.4 1.2h1.3l-1 .8.3 1.2-1-.7-1 .7.3-1.2-1-.8h1.3l.4-1.2z"/><path id="XMLID_12_" class="st1" d="M63.2 27l.4 1.2h1.3l-1 .8.3 1.2-1-.7-1 .7.3-1.2-1-.8h1.3l.4-1.2zm-5.5 1.5l.4 1.2h1.2l-1 .8.4 1.2-1-.7-1.1.7.4-1.2-1-.8h1.3l.4-1.2z"/><path id="XMLID_9_" class="st1" d="M57.7 28.5l.4 1.2h1.2l-1 .8.4 1.2-1-.7-1.1.7.4-1.2-1-.8h1.3l.4-1.2zm-5.6-1.5l.4 1.2h1.2l-1 .8.4 1.2-1-.7-1.1.7.4-1.2-1-.8h1.3l.4-1.2z"/><path id="XMLID_6_" class="st1" d="M52.1 27l.4 1.2h1.2l-1 .8.4 1.2-1-.7-1.1.7.4-1.2-1-.8h1.3l.4-1.2zm-4.1-4.1l.4 1.1 1.3.1-1 .7.3 1.2-1-.7-1 .7.4-1.2-1-.7 1.2-.1.4-1.1z"/><path id="XMLID_3_" class="st1" d="M48 22.9l.4 1.1 1.3.1-1 .7.3 1.2-1-.7-1 .7.4-1.2-1-.7 1.2-.1.4-1.1zm-1.5-5.5l.5 1.2h1.2l-1 .7.4 1.2-1.1-.7-1 .7.4-1.2-1-.7h1.2l.4-1.2z"/><path id="XMLID_2_" class="st1" d="M46.5 17.4l.5 1.2h1.2l-1 .7.4 1.2-1.1-.7-1 .7.4-1.2-1-.7h1.2l.4-1.2z"/></svg>