<svg id="Ebene_1" data-name="Ebene 1" xmlns="http://www.w3.org/2000/svg" viewBox="0 0 517.54 82.89"><defs><style>.cls-1{fill:#f49717;}.cls-2{fill:#126fb7;}</style></defs><title>HSA_digit</title><path class="cls-1" d="M46,71V43.23H22.22V71H5.81V5.88h16.5V29.39H46V5.88H62.34V71Z" transform="translate(-5.81 -4.31)"/><path class="cls-1" d="M126.26,60c-5.63,10.24-17.34,11.62-20.48,12a50.21,50.21,0,0,1-6.54.47c-12.92,0-20.2-4.34-24.54-7.84a38.33,38.33,0,0,1-5.16-5.45L81.9,51.44a27.23,27.23,0,0,0,2.86,2.76,26.22,26.22,0,0,0,15.95,5.44,18.08,18.08,0,0,0,5.07-.64c.47-.09,6.92-1.94,6.92-6.92,0-6-8.67-6.18-14.48-7A80.4,80.4,0,0,1,89,43.41c-4.71-1.2-9-2.95-12.27-6.82A14.89,14.89,0,0,1,74,31.79a20.1,20.1,0,0,1-.83-5.72,39.37,39.37,0,0,1,.36-4.52,17.94,17.94,0,0,1,5.63-10.42c3.23-3,9.59-6.82,20.29-6.82a37.84,37.84,0,0,1,21.49,6.45,65.16,65.16,0,0,1,7.19,5.81l-12,8.58c-3.59-3.5-6.08-5.53-11-7.1a25.7,25.7,0,0,0-6.09-.92c-6.64,0-9.68,3.87-9.68,6.92a4.93,4.93,0,0,0,1.38,3.41c2.21,2.4,5.81,2.3,11.9,3.23,3.69.55,7.28,1.29,10.88,2.12,2.31.46,10.7,2.12,14,10a19.53,19.53,0,0,1,1.29,7A20.88,20.88,0,0,1,126.26,60Z" transform="translate(-5.81 -4.31)"/><path class="cls-1" d="M179.85,71l-3.23-10.42h-24L149.41,71H132.07L156.23,5.88h17l24,65.11ZM164.44,21.37l-8,27.48h16.51Z" transform="translate(-5.81 -4.31)"/><path class="cls-2" d="M253.62,82.52H197V74.86h56.61Z" transform="translate(-5.81 -4.31)"/><path class="cls-2" d="M292.94,32.8V14.92A3.7,3.7,0,0,1,294,12.24a3.5,3.5,0,0,1,2.61-1.1,3.8,3.8,0,0,1,2.73,1.1,3.6,3.6,0,0,1,1.14,2.68V67.21a3.62,3.62,0,0,1-1.12,2.68,3.7,3.7,0,0,1-2.66,1.1,3.64,3.64,0,0,1-2.7-1.1,3.7,3.7,0,0,1-1.08-2.68V65.54Q287.4,71,282.58,71h-6.44q-3.87,0-7.75-3.33L265.24,65a10.05,10.05,0,0,1-2.05-3.47,12.42,12.42,0,0,1-1-4.55V41.58a11.93,11.93,0,0,1,1.09-5A10.05,10.05,0,0,1,265.83,33l3.1-2.66a11.63,11.63,0,0,1,7.84-2.88h5.45a12.14,12.14,0,0,1,8.11,3.15Zm-11,2.3h-5.27a4.4,4.4,0,0,0-3,1.21l-2.43,2.12A3.69,3.69,0,0,0,270,41.31v16a3.67,3.67,0,0,0,1.49,2.84l2.47,2.12a3.7,3.7,0,0,0,2.48,1h6.17a4.84,4.84,0,0,0,2.88-1.39l6-5a4.15,4.15,0,0,0,1.49-3.24v-8.2a5,5,0,0,0-1.58-4l-6.17-5.27A4.58,4.58,0,0,0,282,35.1Z" transform="translate(-5.81 -4.31)"/><path class="cls-2" d="M348.74,70.9H325.68A3.68,3.68,0,0,1,323,69.8a3.8,3.8,0,0,1,2.68-6.47h7.75V35.1h-7.66A3.81,3.81,0,0,1,322,31.31a3.76,3.76,0,0,1,1.1-2.72,3.57,3.57,0,0,1,2.68-1.15H337.3A3.57,3.57,0,0,1,340,28.59a3.8,3.8,0,0,1,1.1,2.72v32h7.57a3.77,3.77,0,0,1,2.72,1.11,3.56,3.56,0,0,1,1.15,2.68,3.63,3.63,0,0,1-1.13,2.68A3.67,3.67,0,0,1,348.74,70.9ZM333.34,7.8h4a3.77,3.77,0,0,1,3.78,3.79v3.24a3.8,3.8,0,0,1-1.1,2.72,3.57,3.57,0,0,1-2.68,1.15h-4.05a3.6,3.6,0,0,1-2.73-1.17,3.53,3.53,0,0,1-1.06-2.61l.09-3.33a3.79,3.79,0,0,1,3.79-3.79Z" transform="translate(-5.81 -4.31)"/><path class="cls-2" d="M397.69,87.2H381.3a3.68,3.68,0,0,1-2.68-1.08,3.6,3.6,0,0,1-1.1-2.7,3.56,3.56,0,0,1,1.1-2.66,3.68,3.68,0,0,1,2.68-1.08h16.39a4.2,4.2,0,0,0,2.79-1.12l2.57-2.21a3.12,3.12,0,0,0,1.31-2.61V62.21Q399,67.57,394,67.57h-5.81a12.11,12.11,0,0,1-8.11-3.11l-2.83-2.52a9.21,9.21,0,0,1-2.41-3.43,10.63,10.63,0,0,1-1-4.41V41.58a12.68,12.68,0,0,1,1-5A9.15,9.15,0,0,1,377.25,33l3.1-2.66a11.61,11.61,0,0,1,7.84-2.88h5.45a12.09,12.09,0,0,1,8.1,3.15l2.62,2.21-.09-1.49a3.84,3.84,0,0,1,3.78-3.78,3.8,3.8,0,0,1,2.72,1.1,3.57,3.57,0,0,1,1.15,2.68V73.74A10.62,10.62,0,0,1,408.05,82L405,84.64a10.2,10.2,0,0,1-3.31,1.8A11.92,11.92,0,0,1,397.69,87.2ZM393.37,35h-5.09a4.88,4.88,0,0,0-3.2,1.3l-2.34,1.94a3.77,3.77,0,0,0-1.35,3.06V53.92a3.89,3.89,0,0,0,1.48,2.88L385.35,59a3.79,3.79,0,0,0,2.48,1H394a4.83,4.83,0,0,0,3-1.35l6-5.09a3.8,3.8,0,0,0,1.4-3V44.87a4.19,4.19,0,0,0-1.58-3.38l-6.17-5.27A4.57,4.57,0,0,0,393.37,35Z" transform="translate(-5.81 -4.31)"/><path class="cls-2" d="M460.16,70.9H437.1a3.77,3.77,0,0,1-2.68-6.44,3.61,3.61,0,0,1,2.68-1.13h7.74V35.1h-7.65A3.61,3.61,0,0,1,434.51,34a3.67,3.67,0,0,1-1.11-2.66,3.77,3.77,0,0,1,1.11-2.72,3.56,3.56,0,0,1,2.68-1.15h11.53a3.57,3.57,0,0,1,2.68,1.15,3.8,3.8,0,0,1,1.1,2.72v32h7.57a3.79,3.79,0,0,1,2.72,1.11,3.56,3.56,0,0,1,1.15,2.68,3.63,3.63,0,0,1-1.13,2.68A3.67,3.67,0,0,1,460.16,70.9ZM444.75,7.8h4a3.77,3.77,0,0,1,3.78,3.79v3.24a3.8,3.8,0,0,1-1.1,2.72,3.57,3.57,0,0,1-2.68,1.15h-4.06a3.58,3.58,0,0,1-2.72-1.17,3.53,3.53,0,0,1-1.06-2.61l.09-3.33a3.77,3.77,0,0,1,3.78-3.79Z" transform="translate(-5.81 -4.31)"/><path class="cls-2" d="M511.9,71h-7.56a11.1,11.1,0,0,1-8.07-3.33,10.87,10.87,0,0,1-3.37-8V35.1H489a3.79,3.79,0,1,1,0-7.57h4V18.25a3.64,3.64,0,0,1,1.1-2.68,3.72,3.72,0,0,1,5.31,0,3.57,3.57,0,0,1,1.15,2.65v9.28h15.22a3.79,3.79,0,0,1,0,7.57H500.46V59.64a3.63,3.63,0,0,0,1.15,2.66,3.76,3.76,0,0,0,2.73,1.12h7.38c2,0,3.35-1.08,4-3.26s1.94-3.27,3.83-3.27A3.58,3.58,0,0,1,522.28,58a3.82,3.82,0,0,1,1.06,2.77q0,3.42-3.22,6.82A10.82,10.82,0,0,1,511.9,71Z" transform="translate(-5.81 -4.31)"/></svg>