<?xml version="1.0" encoding="utf-8"?>
<!-- Generator: Adobe Illustrator 12.0.0, SVG Export Plug-In . SVG Version: 6.00 Build 51448)  -->
<!DOCTYPE svg PUBLIC "-//W3C//DTD SVG 1.1//EN" "http://www.w3.org/Graphics/SVG/1.1/DTD/svg11.dtd" [
	<!ENTITY ns_svg "http://www.w3.org/2000/svg">
	<!ENTITY ns_xlink "http://www.w3.org/1999/xlink">
]>
<svg  version="1.1" id="Ebene_1" xmlns="&ns_svg;" xmlns:xlink="&ns_xlink;" width="119.076" height="54.276"
	 viewBox="0 0 119.076 54.276" overflow="visible" enable-background="new 0 0 119.076 54.276" xml:space="preserve">
<rect x="0.765" y="0.765" fill="#FFFFFF" stroke="#003D8F" stroke-width="1.53" width="117.545" height="52.746"/>
<path fill="none" stroke="#000000" stroke-width="1.5299" d="M59.219,26.946"/>
<path fill="#003D8F" d="M108.083,11.924l-0.032,8.393v22.695c-3.825,1.402-11.475-0.128-15.863-1.213
	c-4.689-1.16-9.453,0.199-13.781,1.318c-5.397,1.145-10.845-0.149-15.771-1.417c-7.238-1.369-13.034,2.562-20.173,1.84
	c-4.655-0.47-9.054-2.313-14.029-1.84c-4.403,0.199-8.071,2.3-13.043,2.077c0.148,0.007-1.88,0.064-4.785-0.336l-0.028-30.391
	c5.249,0.174,11.288-0.786,16.016-1.871c7.586-1.741,13.108,2.463,20.297,1.617c3.408-0.224,6.194-1.915,9.676-1.965
	c4.478-0.323,8.681,0.373,12.636,1.493c4.702,0.945,9.643-0.715,14.154-1.369c7.04-1.02,13.009,1.94,19.875,1.716
	C104.551,12.596,108.083,11.924,108.083,11.924z"/>
<path fill="#FFFFFF" d="M86.119,13.74c0.1,1.244,0.024,2.562,0.05,3.831c-1.518,0.224-3.01,0.448-4.428,0.945
	c-0.05,0.771-0.125,1.667,0.075,2.388c1.442-0.299,2.86-0.597,4.403-0.647v3.707c-1.468,0.273-3.035,0.348-4.403,0.896
	c-0.224,0.746-0.075,1.617-0.125,2.438l0.174,0.125c1.393-0.323,2.836-0.572,4.304-0.721l0.05,3.88
	c-2.513,0.373-5.075,0.871-7.513,1.567l-0.124-4.08l-2.487,0.274l0.049-12.736C79.701,15.556,82.587,13.889,86.119,13.74z"/>
<path fill="#FFFFFF" d="M103.009,15.73l-0.074,7.04c-0.473,1.02-1.568,1.592-2.488,2.015l-0.249,0.298
	c1.119,0.473,2.686,1.095,2.86,2.513v5.248c-1.866-0.149-3.756-0.323-5.498-0.821l0.05-5.049c-0.846-0.273-1.84-0.498-2.786-0.572
	l-0.124,0.174v4.726c-1.791-0.224-3.781-0.348-5.671-0.473V13.74C94.054,13.516,97.91,16.302,103.009,15.73z"/>
<path fill="#FFFFFF" d="M64.901,14.412l0.025,15.148l-0.075,1.791c-1.84-0.323-3.756-0.572-5.795-0.473v-5.846l-0.174-0.124
	l-2.861,0.423l0.05,5.746c-2.04,0.224-4.08,0.522-5.97,1.119l-0.049-6.442l-3.632,0.348v-3.707l3.507-0.522l0.125-0.174v-6.269
	c1.816-0.696,3.855-1.119,5.895-1.269l0.025,5.373l2.91-0.05l0.124-0.174v-5.447C61.021,13.864,63.035,14.038,64.901,14.412z"/>
<path fill="#FFFFFF" d="M35.126,14.536v3.582c-1.318-0.075-2.761-0.398-4.179-0.199c-0.199,0.796-0.124,1.766-0.05,2.587
	c1.344,0.249,2.861,0.174,4.179,0.522c0.199,1.194,0.125,2.612,0.05,3.756c-1.368-0.1-2.662-0.398-4.129-0.298l-0.174,0.199
	l0.074,2.388c1.418,0.075,2.811,0.249,4.179,0.523l0.05,3.831c-3.109-0.522-6.642-0.522-9.85-0.249l-0.05-16.467
	C28.236,13.939,32.042,13.864,35.126,14.536z"/>
<path fill="#FFFFFF" d="M73.284,15.83l-0.05,12.636c0.722,0.324,1.741,0.274,2.612,0.274c0.1,1.269,0.025,2.612,0.05,3.93
	c-2.786,0.348-5.547-0.025-8.109-0.597l-0.125-0.348V15.232C69.503,15.531,71.293,15.904,73.284,15.83z"/>
<path fill="#FFFFFF" d="M22.465,33.515c1.89-0.249,3.905-0.498,5.97-0.473c0.1,1.766,0.125,3.682,0.025,5.373
	c-4.204-0.174-8.905,1.915-12.81,1.617l0,0V16.401c2.208-0.24,4.637-0.479,6.84-1.119l-0.025,4.08V33.515z"/>
<path fill="#FFFFFF" d="M47.24,15.83v3.88l-3.408,0.249l-0.1,0.174v8.731c0.97,0.547,2.338,0.398,3.507,0.348v3.631
	c-3.109,0.647-6.293-0.024-9.079-0.945l-0.1-0.125l-0.025-16.492C40.872,15.979,44.205,16.177,47.24,15.83z"/>
<g>
	<path fill="#FFFFFF" d="M103.125,38.212c0,0-0.115,2.177-0.015,2.152c-6.343-0.249-10.996-2.969-17.364-2.073
		c-3.806,0.249-6.94,2.114-10.87,2.089c-5.472,0.423-9.726-2.114-15.099-1.965c-4.751-0.473-8.333,1.915-12.835,2.089
		c-5.696,0.821-10.298-1.841-15.646-2.089v-1.617c4.775-0.274,8.433,2.114,13.208,1.84c6.07,0.249,10.896-2.835,17.064-1.965
		c4.179,0.199,7.686,2.04,12.014,1.84c6.095,0.149,10.634-3.134,17.002-2.015C94.804,36.75,98.999,38.549,103.125,38.212z"/>
</g>
<g>
	<path fill="#FFFFFF" d="M103.167,34.583c0,0-0.115,2.177-0.015,2.152c-6.343-0.249-10.996-2.969-17.364-2.073
		c-3.806,0.249-6.94,2.114-10.87,2.089c-5.473,0.423-9.726-2.114-15.099-1.965c-4.751-0.473-8.333,1.916-12.835,2.089
		c-5.696,0.821-10.298-1.84-15.646-2.089v-1.617c4.776-0.273,8.433,2.114,13.208,1.841c6.069,0.249,10.895-2.836,17.064-1.965
		c4.179,0.199,7.686,2.04,12.014,1.841c6.095,0.149,10.634-3.134,17.002-2.015C94.846,33.121,99.041,34.92,103.167,34.583z"/>
</g>
<path fill="#003D8F" d="M97.387,22.471l-2.563-0.547c-0.074-0.945-0.149-2.064,0.05-2.985l2.513,0.547V22.471z"/>
</svg>
