<svg xmlns="http://www.w3.org/2000/svg" viewBox="0 0 118 61" enable-background="new 0 0 118 61" width="96" height="50"><style type="text/css">.st0{fill:#164194;} .st1{fill:url(#XMLID_64_);} .st2{fill:url(#XMLID_65_);} .st3{fill:url(#XMLID_66_);}</style><path id="XMLID_124_" class="st0" d="M68.7 36.4h-18.4c-.4 0-.8-.1-.8-.8v-28.7c0-.7.5-.8.8-.8h17.5c.4 0 .8.1.8.8v3.7c0 .7-.5.8-.8.8h-10.6c-.2 0-.5.1-.5.5v5.6c0 .4.3.5.5.5h8.2c.4 0 .8.1.8.8v3.7c0 .7-.5.8-.8.8h-8.2c-.2 0-.5.1-.5.5v6.6c0 .4.3.5.5.5h11.5c.4 0 .8.1.8.8v3.7c0 .9-.4 1-.8 1zm13.6.4c-5.1 0-7.6-1.2-8.3-1.7-.5-.3-.5-.6-.5-1.1v-3.6c0-.4.1-.7.6-.7.4 0 .6.2 1 .4.8.5 2.9 1.6 6.5 1.6 2.5 0 4.8-.4 4.8-3 0-1.8-1.1-2.5-2.5-3.3l-5.2-3.2c-1.7-1.1-4.7-3-4.7-8.1 0-6.7 5.9-8.3 11-8.3 2.6 0 5.4.5 7.2 1.6.5.3.5.6.5 1.1v3.7c0 .4-.1.7-.6.7s-.7-.2-1-.4c-2.2-1.1-3.5-1.7-6.2-1.7-2 0-4.1.5-4.1 2.7 0 1.7 1.1 2.5 2.5 3.2l4.1 2.2c3.6 2 5.8 3.8 5.8 8.8 0 6.7-4.9 9.1-10.9 9.1zm34.5-25.4h-9.6c-.2 0-.5.1-.5.5v6.5c0 .4.3.5.5.5h7.9c.4 0 .8.1.8.8v3.7c0 .7-.5.8-.8.8h-7.9c-.2 0-.5.1-.5.5v10.8c0 .7-.5.8-.8.8h-5.6c-.4 0-.8-.1-.8-.8v-28.6c0-.7.5-.8.8-.8h16.6c.4 0 .8.1.8.8v3.7c0 .7-.5.8-.9.8z"/><path id="XMLID_68_" d="M6.4 47.9h-3.5c-.1 0-.2 0-.2-.2v-5.4c0-.1.1-.2.2-.2h3.3c.1 0 .2 0 .2.2v.7c0 .1-.1.2-.2.2h-2s-.1 0-.1.1v1c0 .1 0 .1.1.1h1.5c.1 0 .2 0 .2.2v.7c0 .1-.1.2-.2.2h-1.5s-.1 0-.1.1v1.2c0 .1 0 .1.1.1h2.2c.1 0 .2 0 .2.2v.7c-.1 0-.2.1-.2.1zm5.4 0h-1c-.1 0-.1 0-.1-.1h-.1c-.1 0-.2 0-.3.1-.2.1-.6.2-.9.2-.5 0-.9-.1-1.2-.4-.3-.3-.3-.7-.3-1.4v-2.5c0-.1.1-.2.2-.2h1c.1 0 .2 0 .2.2v2.4c0 .3 0 .6.1.7.1.2.3.2.6.2.2 0 .3 0 .5-.1s.2-.2.2-.4v-2.8c0-.1.1-.2.2-.2h1c.1 0 .2 0 .2.2v4l-.3.1zm4.7-3.4c-.1 0-.2-.1-.7-.1-.7 0-.8.4-.8.7v2.5c0 .1-.1.2-.2.2h-1c-.1 0-.2 0-.2-.2v-4c0-.1.1-.2.2-.2h1c.1 0 .1 0 .1.1v.1s0 .1.1.1c.2 0 .5-.3 1.1-.3.4 0 .4.1.4.3v.7c.1.1 0 .1 0 .1zm3.3 3.4c-1.5 0-2.3-.9-2.3-2.2 0-1.3.7-2.3 2.3-2.3 1.5 0 2.3.9 2.3 2.2 0 1.3-.8 2.3-2.3 2.3zm0-3.6c-.8 0-.9.7-.9 1.4s.2 1.4.9 1.4c.8 0 .9-.7.9-1.4s-.1-1.4-.9-1.4zm6.1 3.6c-.6 0-.9-.2-1-.2 0 0-.1 0-.1.1v1.6c0 .1-.1.2-.2.2h-1c-.1 0-.2 0-.2-.2v-5.8c0-.1.1-.2.2-.2h1c.1 0 .1 0 .1.1h.1c.2 0 .5-.2 1.1-.2 1.2 0 2 .8 2 2.2.1 1.6-.8 2.4-2 2.4zm-.4-3.6c-.1 0-.3 0-.4.1-.2.1-.3.2-.3.5v1.7c0 .2.1.3.3.4.1 0 .2.1.4.1.4 0 1.1-.1 1.1-1.4 0-.9-.3-1.4-1.1-1.4zm7.4 3.6h-.9c-.1 0-.1 0-.1-.1h-.1c-.2 0-.5.2-1.2.2-1.2 0-1.4-.7-1.4-1.3 0-.8.4-1.2 1.4-1.5l1-.3c.2 0 .3-.1.3-.2 0-.2-.2-.3-.8-.3-.7 0-1.2.2-1.2.3h-.1c-.1 0-.1 0-.1-.1v-.6c0-.1 0-.2.1-.2.3-.2 1.1-.3 1.6-.3 1.1 0 1.4.3 1.5.5.2.2.3.5.3 1.1v2.7l-.3.1zm-2.4-4.9c-.3 0-.5-.2-.5-.5s.2-.5.5-.5.5.1.5.5c.1.3-.1.5-.5.5zm1.3 2.7c-.1-.1-.1-.1-.2 0l-.5.2c-.3.1-.6.2-.6.7 0 .4.2.5.6.5.2 0 .4 0 .5-.1.1-.1.2-.1.2-.4v-.9zm.3-2.7c-.3 0-.5-.2-.5-.5s.2-.5.5-.5.5.1.5.5c0 .3-.2.5-.5.5zm3.3-.1c-.5 0-.7-.2-.7-.6s.2-.6.7-.6.7.2.7.6c.1.4-.2.6-.7.6zm.5 5h-1c-.1 0-.2 0-.2-.2v-4c0-.1.1-.2.2-.2h1c.1 0 .2 0 .2.2v4c0 .1-.1.2-.2.2zm3.1 0c-.8 0-1.2-.2-1.3-.2-.1 0-.1-.1-.1-.2v-.5c0-.1 0-.1.1-.1h.1c.3.2.7.2 1.1.2.2 0 .5 0 .5-.3 0-.2-.2-.3-.4-.4l-.4-.4c-.5-.3-.9-.5-.9-1.2 0-1 .7-1.4 1.7-1.4.5 0 1 .1 1.2.2.1 0 .1.1.1.2v.5c0 .1 0 .1-.1.1h-.1c-.2-.1-.5-.2-.9-.2-.3 0-.6 0-.6.3 0 .2.2.3.4.4l.5.3c.5.3.9.6.9 1.2-.1.9-.7 1.5-1.8 1.5zm6.6-.2c-.2.2-.9.2-1.4.2-2 0-2.3-1.5-2.3-2.2 0-.8.3-2.3 2.4-2.3.5 0 1.1.1 1.3.2.1 0 .1.1.1.2v.6c0 .1 0 .1-.1.1h-.1c-.3-.2-.5-.2-1-.2-1 0-1.2.7-1.2 1.4s.3 1.3 1.1 1.3c.4 0 .7-.1 1-.2h.1c.1 0 .1.1.1.1v.6c.1 0 .1.1 0 .2zm5.5.2h-1c-.1 0-.2 0-.2-.2v-2.4c0-.3 0-.5-.2-.7s-.3-.2-.6-.2c-.2 0-.3 0-.5.1s-.2.2-.2.4v2.8c0 .2-.1.2-.2.2h-1s-.2 0-.2-.2v-5.8c0-.2.1-.2.2-.2h1s.2 0 .2.2v1.7c0 .1 0 .1.1.1s.5-.3 1.1-.3c.5 0 .9.1 1.2.4.3.3.3.7.3 1.4v2.5c.2.1.1.2 0 .2zm5.7-2h-2.6c-.1 0-.1 0-.1.1 0 .7.5 1 1.2 1 .6 0 1-.2 1.1-.2h.1c.1 0 .1.1.1.1v.5c0 .1 0 .2-.1.2-.2.2-.8.2-1.5.2-1.2 0-2.5-.5-2.5-2.2 0-1.6 1-2.3 2.2-2.3 1.8 0 2.1 1.2 2.1 2.2v.2c.1.2 0 .2 0 .2zm-2-1.7c-.5 0-.8.3-.8.8 0 0 0 .1.1.1h1.5c.1 0 .1 0 .1-.1-.1-.6-.5-.8-.9-.8zm6.4.3c-.1 0-.2-.1-.7-.1-.7 0-.8.4-.8.7v2.5c0 .1-.1.2-.2.2h-1c-.1 0-.2 0-.2-.2v-4c0-.1.1-.2.2-.2h1c.1 0 .1 0 .1.1v.1s0 .1.1.1c.2 0 .5-.3 1.1-.3.4 0 .4.1.4.3v.7c.1.1 0 .1 0 .1zm5.5 3.4c-1 0-1.4-.2-1.6-.3-.1 0-.1-.1-.1-.2v-.7c0-.1 0-.1.1-.1s.1 0 .2.1c.2.1.5.3 1.2.3.5 0 .9-.1.9-.6 0-.3-.2-.5-.5-.6l-1-.6c-.3-.2-.9-.6-.9-1.5 0-1.3 1.1-1.6 2.1-1.6.5 0 1 .1 1.4.3.1 0 .1.1.1.2v.7c0 .1 0 .1-.1.1s-.1 0-.2-.1c-.4-.2-.7-.3-1.2-.3-.4 0-.8.1-.8.5 0 .3.2.5.5.6l.7.4c.7.4 1.1.7 1.1 1.7.2 1.2-.8 1.7-1.9 1.7zm5.6 0c-1.5 0-2.3-.9-2.3-2.2 0-1.3.7-2.3 2.3-2.3 1.5 0 2.3.9 2.3 2.2 0 1.3-.8 2.3-2.3 2.3zm0-3.6c-.8 0-.9.7-.9 1.4s.2 1.4.9 1.4c.8 0 .9-.7.9-1.4s-.1-1.4-.9-1.4zm6.9 3.6h-3.3c-.1 0-.2 0-.2-.2v-.5c0-.1 0-.2.1-.3l1.8-2.4v-.1h-1.6c-.1 0-.2 0-.2-.2v-.5c0-.1.1-.2.2-.2h3.1c.1 0 .2 0 .2.2v.5c0 .1 0 .2-.1.3l-1.8 2.4v.1h1.9000000000000001c.1 0 .2 0 .2.2v.5l-.3.2zm2.3-5c-.5 0-.7-.2-.7-.6s.2-.6.7-.6.7.2.7.6-.3.6-.7.6zm.5 5h-1c-.1 0-.2 0-.2-.2v-4c0-.1.1-.2.2-.2h1c.1 0 .2 0 .2.2v4l-.2.2zm5.3 0h-.9c-.1 0-.1 0-.1-.1h-.1c-.2 0-.5.2-1.2.2-1.2 0-1.4-.7-1.4-1.3 0-.8.4-1.2 1.4-1.5l1-.3c.1 0 .3-.1.3-.2 0-.2-.2-.3-.8-.3-.7 0-1.2.2-1.2.3h-.1c-.1 0-.1 0-.1-.1v-.6c0-.1 0-.2.1-.2.3-.2 1.1-.3 1.6-.3 1.1 0 1.4.3 1.5.5.2.2.3.5.3 1.1v2.7l-.3.1zm-1.1-2.2c-.1-.1-.1-.1-.2 0l-.5.2c-.3.1-.6.2-.6.7 0 .4.2.5.6.5.2 0 .4 0 .5-.1.1-.1.2-.1.2-.4v-.9zm4.2 2.2h-1c-.1 0-.2 0-.2-.2v-5.8c0-.1.1-.2.2-.2h1c.1 0 .2 0 .2.2v5.8l-.2.2zm4-3.6h-.6s-.1 0-.1.1v3.2c0 .1-.1.2-.2.2h-1c-.1 0-.2 0-.2-.2v-3.2c0-.1 0-.1-.1-.1h-.4c-.1 0-.2 0-.2-.2v-.5c0-.1.1-.2.2-.2h.4s.1 0 .1-.1v-.2c0-.4 0-.6.1-.7.2-.6.8-.7 1.2-.7.5 0 .9.1.9.3v.5c0 .1 0 .1-.1.1s-.2-.1-.4-.1-.3 0-.4.2v.5c0 .1 0 .1.1.1h.6c.1 0 .2 0 .2.2v.5c.1.3 0 .3-.1.3zm3.4 3.6c-1.5 0-2.3-.9-2.3-2.2 0-1.3.7-2.3 2.3-2.3 1.5 0 2.3.9 2.3 2.2 0 1.3-.7 2.3-2.3 2.3zm0-3.6c-.8 0-.9.7-.9 1.4s.2 1.4.9 1.4c.8 0 .9-.7.9-1.4.1-.8-.1-1.4-.9-1.4zm7.7 3.6h-1c-.1 0-.2 0-.2-.2v-2.4c0-.3 0-.5-.2-.7-.1-.2-.3-.2-.6-.2-.2 0-.3 0-.5.1s-.2.2-.2.4v2.8c0 .1-.1.2-.2.2h-1c-.1 0-.2 0-.2-.2v-4c0-.1.1-.2.2-.2h1c.1 0 .1 0 .1.1h.1s.2 0 .3-.1c.2-.1.6-.2.9-.2.5 0 .9.1 1.2.4s.3.7.3 1.4v2.5c.1.2.1.3 0 .3zm5.9 0h-1c-.1 0-.1 0-.1-.1h-.1c-.2 0-.5.2-1.1.2-1.2 0-2-.8-2-2.2 0-1.5.8-2.3 2.1-2.3.6 0 .9.2 1 .2 0 0 .1 0 .1-.1v-1.7c0-.1.1-.2.2-.2h1c.1 0 .2 0 .2.2v5.8c-.2.1-.3.2-.3.2zm-1.2-3.1c0-.2-.1-.3-.3-.4-.1 0-.2-.1-.4-.1-.4 0-1.1.1-1.1 1.4 0 .8.3 1.3 1.1 1.3.1 0 .3 0 .4-.1.2-.1.3-.2.3-.5v-1.6zm4.3 3.1c-.8 0-1.2-.2-1.3-.2s-.1-.1-.1-.2v-.5c0-.1 0-.1.1-.1h.1c.3.2.7.2 1.1.2.2 0 .5 0 .5-.3 0-.2-.2-.3-.4-.4l-.5-.4c-.5-.3-.9-.5-.9-1.2 0-1 .7-1.4 1.7-1.4.5 0 1 .1 1.2.2.1 0 .1.1.1.2v.5c0 .1 0 .1-.1.1h-.1c-.2-.1-.5-.2-.9-.2-.3 0-.6 0-.6.3 0 .2.2.3.4.4l.5.3c.5.3.9.6.9 1.2-.1.9-.6 1.5-1.7 1.5zm-89.1 7.3h-.6s-.1 0-.1.1v3.2c0 .1-.1.2-.2.2h-1c-.1 0-.2 0-.2-.2v-3.2c0-.1 0-.1-.1-.1h-.2c-.1 0-.2 0-.2-.2v-.5c0-.1.1-.2.2-.2h.4s.1 0 .1-.1v-.2c0-.4 0-.6.1-.7.2-.6.8-.7 1.2-.7.5 0 .9.1.9.3v.5c0 .1 0 .1-.1.1s-.2-.1-.4-.1-.3 0-.4.2v.5c0 .1 0 .1.1.1h.6c.1 0 .2 0 .2.2v.6c-.1.2-.2.2-.3.2zm5.3 3.5h-1c-.1 0-.1 0-.1-.1h-.1c-.1 0-.2 0-.3.1-.2.1-.6.2-.9.2-.5 0-.9-.1-1.2-.4-.3-.3-.3-.7-.3-1.4v-2.5c0-.1.1-.2.2-.2h1c.1 0 .2 0 .2.2v2.4c0 .3 0 .6.1.7.1.2.3.2.6.2.2 0 .3 0 .5-.1s.2-.2.2-.4v-2.8c0-.1.1-.2.2-.2h1c.1 0 .2 0 .2.2v4c-.2.1-.3.1-.3.1zm-2.7-4.9c-.3 0-.5-.2-.5-.5s.2-.5.5-.5.5.2.5.5-.2.5-.5.5zm1.5 0c-.3 0-.5-.2-.5-.5s.2-.5.5-.5.5.2.5.5c.1.3-.1.5-.5.5zm5.8 1.6c-.1 0-.2-.1-.7-.1-.7 0-.8.4-.8.7v2.5c0 .1-.1.2-.2.2h-1c-.1 0-.2 0-.2-.2v-4c0-.1.1-.2.2-.2h1c.1 0 .1 0 .1.1v.1s0 .1.1.1c.2 0 .5-.3 1.1-.3.4 0 .4.1.4.3v.7c.1 0 .1.1 0 .1zm8.2 2.9c-.5.2-1 .4-1.9.4h-2c-.1 0-.2 0-.2-.2v-5.4c0-.1.1-.2.2-.2h2.1c.7 0 1.2.1 1.7.3.9.4 1.4 1.4 1.4 2.5 0 1.2-.5 2.1-1.3 2.6zm-1-4.2c-.3-.1-.6-.1-1.2-.1h-.3s-.1 0-.1.1v3.5c0 .1 0 .1.1.1h.5c.7 0 1.9-.2 1.9-1.9 0-.8-.3-1.4-.9-1.7zm7.6 2.6h-2.6c-.1 0-.1 0-.1.1 0 .7.5 1 1.2 1 .6 0 1-.2 1.1-.2h.1c.1 0 .1.1.1.1v.5c0 .1 0 .2-.1.2-.2.2-.8.2-1.5.2-1.2 0-2.5-.5-2.5-2.2 0-1.6 1-2.3 2.2-2.3 1.8 0 2.1 1.2 2.1 2.2v.2c.1.2 0 .2 0 .2zm-2-1.7c-.5 0-.8.3-.8.8 0 0 0 .1.1.1h1.5c.1 0 .1 0 .1-.1-.1-.6-.5-.8-.9-.8zm7.5 3.7h-1c-.1 0-.1 0-.1-.1h-.1s-.2 0-.3.1c-.2.1-.6.2-.9.2-.5 0-.9-.1-1.2-.4s-.3-.7-.3-1.4v-2.5c0-.1.1-.2.2-.2h1c.1 0 .2 0 .2.2v2.4c0 .3 0 .6.1.7.1.2.3.2.6.2.2 0 .3 0 .5-.1s.2-.2.2-.4v-2.8c0-.1.1-.2.2-.2h1c.1 0 .2 0 .2.2v4c-.2.1-.3.1-.3.1zm3.6 0c-.2 0-.8 0-1.2-.3-.2-.2-.4-.5-.4-1.2v-2c0-.1 0-.1-.1-.1h-.4c-.1 0-.2 0-.2-.2v-.5c0-.1.1-.2.2-.2h.4s.1 0 .1-.1v-.8c0-.1.1-.2.2-.2h1c.1 0 .2 0 .2.2v.8c0 .1 0 .1.1.1h1.1c.1 0 .2 0 .2.2v.6c0 .1-.1.2-.2.2h-1.2s-.1 0-.1.1v2.2c0 .1.2.3.5.3.4 0 .5-.2.6-.2.1 0 .1 0 .1.1v.7c.1.3-.5.3-.9.3zm3.9 0c-.8 0-1.2-.2-1.3-.2-.1 0-.1-.1-.1-.2v-.5c0-.1 0-.1.1-.1h.1c.3.2.7.2 1.1.2.2 0 .5 0 .5-.3 0-.2-.2-.3-.4-.4l-.5-.3c-.5-.3-.9-.5-.9-1.2 0-1 .7-1.4 1.7-1.4.5 0 1 .1 1.2.2.1 0 .1.1.1.2v.5c0 .1 0 .1-.1.1h-.1c-.2-.1-.5-.2-.9-.2-.3 0-.6 0-.6.3 0 .2.2.3.4.4l.5.3c.5.3.9.6.9 1.2-.1.9-.7 1.4-1.7 1.4zm6.5-.2c-.2.2-.9.2-1.4.2-2 0-2.3-1.4-2.3-2.2 0-.8.3-2.3 2.4-2.3.5 0 1.1.1 1.3.2.1 0 .1.1.1.2v.6c0 .1 0 .1-.1.1h-.1c-.3-.2-.5-.2-1-.2-1 0-1.2.7-1.2 1.4s.3 1.3 1.1 1.3c.4 0 .7-.1 1-.2h.1c.1 0 .1.1.1.1v.6c.1.1.1.2 0 .2zm5.6.2h-1c-.1 0-.2 0-.2-.2v-2.4c0-.3 0-.5-.2-.7-.1-.2-.3-.2-.6-.2-.2 0-.3 0-.5.1s-.2.2-.2.4v2.8c0 .2-.1.2-.2.2h-1s-.2 0-.2-.2v-5.8c0-.2.1-.2.2-.2h1s.2 0 .2.2v1.7c0 .1 0 .1.1.1s.5-.3 1.1-.3c.5 0 .9.1 1.2.4.3.3.3.7.3 1.4v2.5c.1.2 0 .2 0 .2zm2.9 0h-1c-.1 0-.2 0-.2-.2v-5.8c0-.1.1-.2.2-.2h1c.1 0 .2 0 .2.2v5.8c0 .2-.1.2-.2.2zm5.4 0h-.9c-.1 0-.1 0-.1-.1h-.1c-.2 0-.5.2-1.2.2-1.2 0-1.4-.7-1.4-1.3 0-.8.4-1.2 1.4-1.5l1-.3c.2 0 .3-.1.3-.2 0-.2-.2-.3-.8-.3-.7 0-1.2.2-1.2.3h-.1c-.1 0-.1 0-.1-.1v-.6c0-.1 0-.2.1-.2.3-.2 1.1-.3 1.6-.3 1.1 0 1.4.3 1.5.5.2.2.3.5.3 1.1v2.7c-.1.1-.2.1-.3.1zm-1.1-2.1c-.1-.1-.1-.1-.2 0l-.5.2c-.3.1-.6.2-.6.7 0 .4.2.5.6.5.2 0 .4 0 .5-.1.1-.1.2-.2.2-.4v-.9zm6.9 2.1h-1c-.1 0-.2 0-.2-.2v-2.4c0-.3 0-.5-.2-.7-.1-.2-.3-.2-.6-.2-.2 0-.3 0-.5.1s-.2.2-.2.4v2.8c0 .1-.1.2-.2.2h-1c-.1 0-.2 0-.2-.2v-4c0-.1.1-.2.2-.2h1c.1 0 .1 0 .1.1h.1c.1 0 .2 0 .3-.1.2-.1.6-.2.9-.2.5 0 .9.1 1.2.4s.3.7.3 1.4v2.5c.1.3.1.3 0 .3zm5.8 0h-.9c-.1 0-.1 0-.1-.1h-.1c-.2 0-.5.2-1.1.2-1.2 0-2-.8-2-2.2 0-1.5.8-2.3 2.1-2.3.6 0 .9.2 1 .2 0 0 .1 0 .1-.1v-1.7c0-.1.1-.2.2-.2h1c.1 0 .2 0 .2.2v5.8c-.2.2-.3.2-.4.2zm-1.1-3.1c0-.2-.1-.3-.3-.4-.1 0-.2-.1-.4-.1-.4 0-1.1.1-1.1 1.4 0 .8.3 1.3 1.1 1.3.1 0 .3 0 .4-.1.2-.1.3-.2.3-.5v-1.6z"/><linearGradient id="XMLID_64_" gradientUnits="userSpaceOnUse" x1="22.448" y1="33.509" x2="21.576" y2="24.872" gradientTransform="matrix(1 0 0 -1 0 62)"><stop offset=".133" stop-color="#102D69"/><stop offset=".217" stop-color="#113070"/><stop offset=".449" stop-color="#143880"/><stop offset=".664" stop-color="#153D8B"/><stop offset=".854" stop-color="#164092"/><stop offset="1" stop-color="#164194"/></linearGradient><path id="XMLID_4_" class="st1" d="M43.3 36.4l-35.2-11-8.1 10.7 43.3.3z"/><linearGradient id="XMLID_65_" gradientUnits="userSpaceOnUse" x1="27.434" y1="40.199" x2="31.708" y2="46.916" gradientTransform="matrix(1 0 0 -1 0 62)"><stop offset=".15" stop-color="#E30613"/><stop offset=".328" stop-color="#DF0713"/><stop offset=".572" stop-color="#D30A11"/><stop offset=".842" stop-color="#C00D0D"/></linearGradient><path id="XMLID_3_" class="st2" d="M44.4 35.4l-22.2-29.4-12.8 3.9 35 25.5z"/><path id="XMLID_2_" d="M44.9 35l-12-34.8-13.5-.2 25.5 35z"/><linearGradient id="XMLID_66_" gradientUnits="userSpaceOnUse" x1="22.923" y1="32.144" x2="26.15" y2="39.473" gradientTransform="matrix(1 0 0 -1 0 62)"><stop offset=".179" stop-color="#F8D200"/><stop offset=".429" stop-color="#F2CD00"/><stop offset=".813" stop-color="#E1BF00"/><stop offset=".94" stop-color="#DABA00"/></linearGradient><path id="XMLID_1_" class="st3" d="M43.8 35.9l-30-21.3-11.1 7.7 41.1 13.6z"/></svg>