<svg id="Ebene_1" data-name="Ebene 1" xmlns="http://www.w3.org/2000/svg" viewBox="0 0 659.58 399.6"><defs><style>.cls-1{fill:#fff;stroke:#1d1d1b;stroke-miterlimit:10;}.cls-2{fill:#1d1d1b;}.cls-3{fill:#f49712;}</style></defs><title>hochschule-augsburg-logo</title><path class="cls-1" d="M333.85,200.48" transform="translate(-72.24 -102.2)"/><path class="cls-2" d="M82.35,412.45l-2.27,7.62H72.24l13.2-39h8.29l13.31,39H99.25L97,412.45Zm7.34-24.36-5.41,18H95.05Z" transform="translate(-72.24 -102.2)"/><path class="cls-2" d="M136.15,420.07h-6.63l-.06-2.81a12.46,12.46,0,0,1-8.89,3.47c-4.58,0-6.85-2-7.95-3.64-1.77-2.6-1.61-5.74-1.61-8.73v-15.9h6.69v14.91c-.06,2.26-.11,5,2.2,6.3a6.5,6.5,0,0,0,3.21.82,6,6,0,0,0,5.36-3.09c1.1-2.1,1-5.08,1.05-7.24v-11.7h6.63Z" transform="translate(-72.24 -102.2)"/><path class="cls-2" d="M168.51,415.15c0,3.21.33,7.13-1.77,10-1.71,2.32-5.3,4.2-11.54,4.2s-9.22-1.72-10.93-4.15a12.57,12.57,0,0,1-1.72-4.52l7.29.05a3.61,3.61,0,0,0,.67,1.38c1.43,2.1,4.47,2,5,2,3.31,0,5-1.27,5.74-2.59s.72-2.87.72-6a12.62,12.62,0,0,1-8.34,2.93,12.17,12.17,0,0,1-5-1c-2.93-1.27-6.9-4.59-6.9-12.15a16.74,16.74,0,0,1,.94-5.91,12.16,12.16,0,0,1,11.54-7.79,10.19,10.19,0,0,1,5.86,1.76,8.72,8.72,0,0,1,1.93,2v-2.92h6.57Zm-6.85-12.86a6.33,6.33,0,0,0-6.41-4.75,6.53,6.53,0,0,0-4.91,2.1,7.79,7.79,0,0,0-1.88,5.52,7.64,7.64,0,0,0,1.77,5.25,6.88,6.88,0,0,0,1.77,1.32,7.23,7.23,0,0,0,3.31.72,6.43,6.43,0,0,0,4.92-1.88,7.11,7.11,0,0,0,1.87-5.19A8.91,8.91,0,0,0,161.66,402.29Z" transform="translate(-72.24 -102.2)"/><path class="cls-2" d="M193.48,401.13a6.56,6.56,0,0,0-1.72-2.22,8.2,8.2,0,0,0-5.79-2,6.61,6.61,0,0,0-3.37.83,2.21,2.21,0,0,0-.33,3.75c.71.56,2.54,1,4.74,1.39,1.5.27,3,.49,4.48.82a11.86,11.86,0,0,1,4.36,1.72,7.34,7.34,0,0,1,3,6,8,8,0,0,1-.94,3.75c-1.32,2.54-4.75,5.69-11.49,5.69a20.46,20.46,0,0,1-10.6-2.82,15.7,15.7,0,0,1-2.65-2.15l5-4a7.66,7.66,0,0,0,1.27,1.39c2.37,2,5.91,2.15,6.68,2.15a6.29,6.29,0,0,0,4.7-1.65,2.41,2.41,0,0,0,.71-1.61,1.85,1.85,0,0,0-.44-1.15c-.71-1-1.6-1.06-3.64-1.5-1.82-.38-3.65-.61-5.42-1-1.21-.33-7.56-1.87-7.62-7.84a8.6,8.6,0,0,1,1.27-4.25c1.39-2.16,4.64-4.75,10.61-4.75a15.43,15.43,0,0,1,11.87,5.13Z" transform="translate(-72.24 -102.2)"/><path class="cls-2" d="M210.93,394.77c.28-.27.61-.55.89-.77a11.94,11.94,0,0,1,7-2.37,11.23,11.23,0,0,1,8,3.48,15.3,15.3,0,0,1,4.14,11c0,5.19-2.1,10.55-6.79,13.2a12,12,0,0,1-5.74,1.6,9.38,9.38,0,0,1-6.36-2.49,11.52,11.52,0,0,1-1.21-1.21v2.87H204.3v-39h6.58Zm11.77,5.69a6.6,6.6,0,0,0-5.42-2.81,5.72,5.72,0,0,0-4.31,1.82,8.85,8.85,0,0,0-2.15,6.3c0,2.7.5,5.74,2.82,7.51a6.7,6.7,0,0,0,3.92,1.32,6,6,0,0,0,5-2.76,13.79,13.79,0,0,0,1.6-5.85A9.84,9.84,0,0,0,222.7,400.46Z" transform="translate(-72.24 -102.2)"/><path class="cls-2" d="M261.53,420.07H254.9l-.06-2.81a12.46,12.46,0,0,1-8.89,3.47c-4.59,0-6.85-2-8-3.64-1.76-2.6-1.6-5.74-1.6-8.73v-15.9h6.69v14.91c-.06,2.26-.11,5,2.21,6.3a6.43,6.43,0,0,0,3.2.82,6,6,0,0,0,5.36-3.09c1.1-2.1,1-5.08,1.05-7.24v-11.7h6.63Z" transform="translate(-72.24 -102.2)"/><path class="cls-2" d="M275.11,396.38a8.63,8.63,0,0,1,1.66-2.27c2.21-2.15,5.8-2.26,6.57-2.26h.55v6.79c-1.37,0-6.68,0-8.28,5.08a13.87,13.87,0,0,0-.5,4.53v11.82H268.7V392.46h6.41Z" transform="translate(-72.24 -102.2)"/><path class="cls-2" d="M313.45,415.15c-.06,3.21.33,7.13-1.77,10-1.71,2.32-5.3,4.2-11.55,4.2s-9.22-1.72-10.93-4.15a12.76,12.76,0,0,1-1.72-4.52l7.29.05a3.61,3.61,0,0,0,.67,1.38c1.43,2.1,4.47,2,5,2,3.31,0,5-1.27,5.75-2.59s.71-2.87.71-6a12.62,12.62,0,0,1-8.34,2.93,12.17,12.17,0,0,1-5-1c-2.92-1.27-6.9-4.59-6.9-12.15a16.74,16.74,0,0,1,.94-5.91,12.16,12.16,0,0,1,11.54-7.79,10.19,10.19,0,0,1,5.86,1.76,8.72,8.72,0,0,1,1.93,2v-2.92h6.58Zm-6.85-12.86a6.34,6.34,0,0,0-6.41-4.75,6.54,6.54,0,0,0-4.92,2.1,7.77,7.77,0,0,0-1.87,5.52,7.67,7.67,0,0,0,1.76,5.25,7.07,7.07,0,0,0,1.77,1.32,7.26,7.26,0,0,0,3.31.72,6.39,6.39,0,0,0,4.92-1.88,7.08,7.08,0,0,0,1.88-5.19A8.91,8.91,0,0,0,306.6,402.29Z" transform="translate(-72.24 -102.2)"/><path class="cls-3" d="M357.07,102.48a6.39,6.39,0,0,0-4.26,8l30,98.63H341.65a6.41,6.41,0,0,0,0,12.81h49.83a6.38,6.38,0,0,0,6.12-8.26l-32.53-106.9A6.41,6.41,0,0,0,357.07,102.48Z" transform="translate(-72.24 -102.2)"/><path class="cls-3" d="M309.51,143.73a8.4,8.4,0,1,0,8.39-8.4A8.41,8.41,0,0,0,309.51,143.73Z" transform="translate(-72.24 -102.2)"/><path class="cls-3" d="M474,102.48a6.39,6.39,0,0,1,4.53,6.12,6.06,6.06,0,0,1-.28,1.87l-30,98.63h41.19a6.41,6.41,0,0,1,0,12.81H439.64a6.4,6.4,0,0,1-6.13-8.26l32.54-106.9A6.4,6.4,0,0,1,474,102.48Z" transform="translate(-72.24 -102.2)"/><path class="cls-3" d="M405.32,143.73a8.21,8.21,0,1,0,8.2-8.21A8.21,8.21,0,0,0,405.32,143.73Z" transform="translate(-72.24 -102.2)"/><path class="cls-3" d="M572,102.48a6.4,6.4,0,0,1,4.54,6.12,6.08,6.08,0,0,1-.29,1.87l-30,98.63h41.18a6.41,6.41,0,0,1,0,12.81H537.63a6.4,6.4,0,0,1-6.12-8.26L564,106.74A6.41,6.41,0,0,1,572,102.48Z" transform="translate(-72.24 -102.2)"/><path class="cls-3" d="M501.12,143.73a8.2,8.2,0,1,0,8.2-8.21A8.21,8.21,0,0,0,501.12,143.73Z" transform="translate(-72.24 -102.2)"/><path class="cls-3" d="M603.48,143.73a8.4,8.4,0,1,0,8.41-8.4A8.41,8.41,0,0,0,603.48,143.73Z" transform="translate(-72.24 -102.2)"/><path class="cls-3" d="M457.35,237.5a5.1,5.1,0,0,0-5.09,4.66,28,28,0,0,0,6.81,21.51,19.48,19.48,0,0,0,29.83.06c5.05-5.49,7.54-13.34,6.85-21.54a5.12,5.12,0,0,0-5.1-4.69Zm28.06,10.07c.08,10.55-8.11,13.07-11.41,13.05s-11.37-2.43-11.42-13.05Z" transform="translate(-72.24 -102.2)"/><path class="cls-3" d="M341.18,237.29a5.94,5.94,0,0,0,0,11.87h26.51a5.94,5.94,0,0,0,0-11.87Z" transform="translate(-72.24 -102.2)"/><path class="cls-3" d="M341.18,255.23a5.94,5.94,0,0,0,0,11.87h26.51a5.94,5.94,0,0,0,0-11.87Z" transform="translate(-72.24 -102.2)"/><path class="cls-3" d="M585.53,246.49a30.47,30.47,0,0,1-11,2.1h-3a31.36,31.36,0,0,1-11.23-2.11,5.93,5.93,0,0,0-4.81,10.84,42.06,42.06,0,0,0,16,3.14h3a41.29,41.29,0,0,0,15.84-3.14,5.93,5.93,0,0,0-4.84-10.83Z" transform="translate(-72.24 -102.2)"/><path class="cls-2" d="M364.42,398.82c-.06,2.71,0,5.36-.12,8.06-.11,3.6-.6,7-3,9.83-1.77,2.05-5.09,4.37-11.33,4.37-1.43,0-6.18-.06-10-3a12.07,12.07,0,0,1-2.82-3.2c-2-3.59-1.88-7.57-1.88-15.69V381.09h3.65v25.3a15,15,0,0,0,1.16,6.4,7.55,7.55,0,0,0,3.37,3.37,13.14,13.14,0,0,0,6.46,1.49c1,0,5.85,0,8.62-3.26,2.2-2.65,2.2-6.13,2.2-9.28v-24h3.71Z" transform="translate(-72.24 -102.2)"/><path class="cls-2" d="M390.49,420.08V406.39c0-3.54.05-5.64-.61-7.18a4.32,4.32,0,0,0-2-2.27,7.2,7.2,0,0,0-3.59-.83,7.61,7.61,0,0,0-3.48.72,7.92,7.92,0,0,0-4,5,47.09,47.09,0,0,0-.33,6.68v11.54h-3.26V393.74h3.26v4.69a6.72,6.72,0,0,1,1.88-2.93,8.77,8.77,0,0,1,6.41-2.32c4.91,0,7.12,2.71,8,4.53.94,2.1.89,4.2.94,8.68v13.69Z" transform="translate(-72.24 -102.2)"/><path class="cls-2" d="M402.31,387.55v-5h3.2v5Zm0,32.53V393.74h3.2v26.34Z" transform="translate(-72.24 -102.2)"/><path class="cls-2" d="M421.46,420.08l-9.12-26.34h3.27l7.29,21.42L431,393.74h3.2l-10.11,26.34Z" transform="translate(-72.24 -102.2)"/><path class="cls-2" d="M461.56,406.88l-20.43.06a13.72,13.72,0,0,0,.49,4.41,8.14,8.14,0,0,0,8.45,6.41c2.32,0,6-.55,8.45-5.52l3,.88a17.58,17.58,0,0,1-2,3.43,11.31,11.31,0,0,1-9.39,4.2,13.18,13.18,0,0,1-6.08-1.39c-6.29-3.25-6.51-11-6.51-12.7a17.24,17.24,0,0,1,.82-5.35,11.85,11.85,0,0,1,11.33-8.24,11.15,11.15,0,0,1,8.45,3.76,14.6,14.6,0,0,1,3.42,9.28Zm-3.76-2.7c-.77-6.8-5.3-8.18-8.17-8.18a8.17,8.17,0,0,0-7.46,4.59,14.63,14.63,0,0,0-1,3.65Z" transform="translate(-72.24 -102.2)"/><path class="cls-2" d="M469.18,420.08V393.74h3.26v4.2a5.71,5.71,0,0,1,.72-1.33,7.75,7.75,0,0,1,3.09-2.6,8.91,8.91,0,0,1,3.75-.66,14.79,14.79,0,0,1,1.94.11l-.05,2.93a12,12,0,0,0-2.05-.17c-4,0-6.52,2.38-7.12,6.24a40.81,40.81,0,0,0-.28,6.25v11.37Z" transform="translate(-72.24 -102.2)"/><path class="cls-2" d="M487.68,412.57c.45,1.82,2.43,5.19,7.35,5.19a8,8,0,0,0,4.86-1.32,5,5,0,0,0,1.88-3.81,4.27,4.27,0,0,0-.72-2.32c-.83-1.16-2.15-1.83-5-2.43-2.6-.61-6.69-1.05-8.56-3.32a6.85,6.85,0,0,1-1.38-4.14,7.42,7.42,0,0,1,2.27-5.14c1.76-1.66,4.85-2.21,7.17-2.21a12.24,12.24,0,0,1,6.46,1.72,7.38,7.38,0,0,1,2.88,4.25l-3.09.83c-.61-3-3.76-3.92-6.41-3.92a7.83,7.83,0,0,0-4.31,1A3.61,3.61,0,0,0,490,398.1a4.49,4.49,0,0,0-.61,2.27c0,3.09,3.26,3.7,5.52,4.25l2.77.55c2.32.61,4.58,1.38,6,3.43a6.55,6.55,0,0,1,1.27,4,7.9,7.9,0,0,1-.83,3.53c-1,2-3.7,4.59-9,4.59a11,11,0,0,1-8.84-4,15.33,15.33,0,0,1-1.77-3.09Z" transform="translate(-72.24 -102.2)"/><path class="cls-2" d="M512.32,387.55v-5h3.2v5Zm0,32.53V393.74h3.2v26.34Z" transform="translate(-72.24 -102.2)"/><path class="cls-2" d="M536.12,419.36a7.11,7.11,0,0,1-4.2,1.22,4.29,4.29,0,0,1-.88-.06,3.66,3.66,0,0,1-3.48-2.31c-.44-1.17-.39-4-.39-5.25V396.5h-5.52v-2.76h5.52V382.52h3.15v11.22h5.8v2.76h-5.8V411a26.53,26.53,0,0,1,0,2.82c0,1.55-.06,3.87,2.15,3.87a6.88,6.88,0,0,0,3.65-1.66Z" transform="translate(-72.24 -102.2)"/><path class="cls-2" d="M551,423.9c-2.43,6.29-3.42,9.55-7.62,9.55a5.8,5.8,0,0,1-3.48-1.05v-3.31a5.69,5.69,0,0,0,3.42,1.27c1.88,0,2.43-1.22,3.53-4,.4-.83.73-1.66,1.06-2.48l1.38-3.82-9.11-26.34h3.14L551,416.16l8.56-22.42h3.32Z" transform="translate(-72.24 -102.2)"/><path class="cls-2" d="M601.55,412.07c-1.66,5.31-5.8,8.68-11.38,8.68a11.06,11.06,0,0,1-9.11-4.42,14.88,14.88,0,0,1-2.71-9.12,18.12,18.12,0,0,1,1.21-6.68,11.11,11.11,0,0,1,10.83-7.46,10.42,10.42,0,0,1,7.73,2.93c3,2.76,4.09,6.85,4.15,10.77A17.59,17.59,0,0,1,601.55,412.07Zm-11.21-16.24a8.13,8.13,0,0,0-4.76,1.5c-2,1.54-3.75,4.42-3.75,9.88,0,1-.11,6.3,3.48,9.12a7.65,7.65,0,0,0,4.91,1.54c3.87,0,8.45-2.43,8.57-10.77C598.84,398.54,594.53,395.83,590.34,395.83Z" transform="translate(-72.24 -102.2)"/><path class="cls-2" d="M614.31,396.5v23.58h-3.26V396.5h-5.8v-2.76h5.8v-5c.06-2.81-.11-3.59.34-5.08.55-1.66,1.82-3.32,5.51-3.32a17,17,0,0,1,3.37.39v3.21a7.64,7.64,0,0,0-3.15-.72,2.23,2.23,0,0,0-1.92.72c-1.05,1-.89,2.09-.89,4.52v5.31h6v2.76Z" transform="translate(-72.24 -102.2)"/><path class="cls-2" d="M362.85,487.82l-4.47-11.76H340.92l-4.47,11.76h-4.09l15.91-39h3.09l15.52,39Zm-13.09-34.69-7.62,19.94h15.13Z" transform="translate(-72.24 -102.2)"/><path class="cls-2" d="M376,461.47v4.31a6.11,6.11,0,0,1,1-1.71,8.3,8.3,0,0,1,7-3.15,10,10,0,0,1,5.46,1.38c4,2.54,5.58,8,5.58,12.43a19,19,0,0,1-.55,4.53c-.5,1.93-2.82,9.17-10.49,9.17a8.29,8.29,0,0,1-7.24-3.65,6,6,0,0,1-.72-1.38v18.39h-3.2V461.47Zm2.87,22.26a6.87,6.87,0,0,0,4.59,1.55c6.07,0,8.17-5.92,8.17-11a14.86,14.86,0,0,0-.72-4.64c-1.6-5-5.46-5.75-7.51-5.75a7.29,7.29,0,0,0-3.42.83,8.08,8.08,0,0,0-3.59,5.47,25.73,25.73,0,0,0-.39,4.09C375.88,477.6,376.05,481.41,378.86,483.73Z" transform="translate(-72.24 -102.2)"/><path class="cls-2" d="M405.05,461.47v4.31a6.13,6.13,0,0,1,1-1.71,8.32,8.32,0,0,1,7-3.15,10.06,10.06,0,0,1,5.47,1.38c4,2.54,5.57,8,5.57,12.43a19,19,0,0,1-.55,4.53c-.49,1.93-2.81,9.17-10.49,9.17a8.3,8.3,0,0,1-7.24-3.65,6.48,6.48,0,0,1-.71-1.38v18.39h-3.21V461.47Zm2.87,22.26a6.84,6.84,0,0,0,4.58,1.55c6.08,0,8.18-5.92,8.18-11a15.17,15.17,0,0,0-.72-4.64c-1.6-5-5.47-5.75-7.51-5.75a7.3,7.3,0,0,0-3.43.83,8.08,8.08,0,0,0-3.59,5.47,25.72,25.72,0,0,0-.38,4.09C404.94,477.6,405.1,481.41,407.92,483.73Z" transform="translate(-72.24 -102.2)"/><path class="cls-2" d="M430.84,487.82v-39h3.31v39Z" transform="translate(-72.24 -102.2)"/><path class="cls-2" d="M443.54,455.29v-5h3.2v5Zm0,32.53V461.47h3.2v26.35Z" transform="translate(-72.24 -102.2)"/><path class="cls-2" d="M478.5,474.62l-20.44.05a13.55,13.55,0,0,0,.5,4.43,8.15,8.15,0,0,0,8.45,6.4c2.32,0,6-.56,8.45-5.52l3,.88a17.79,17.79,0,0,1-2.05,3.42c-1.43,1.72-4,4.2-9.39,4.2A13.1,13.1,0,0,1,461,487.1c-6.3-3.26-6.52-11-6.52-12.7a17.39,17.39,0,0,1,.83-5.36,11.85,11.85,0,0,1,11.32-8.23,11.1,11.1,0,0,1,8.45,3.76,14.51,14.51,0,0,1,3.43,9.28Zm-3.76-2.71c-.77-6.79-5.3-8.17-8.17-8.17a8.16,8.16,0,0,0-7.46,4.58,14.46,14.46,0,0,0-1,3.65Z" transform="translate(-72.24 -102.2)"/><path class="cls-2" d="M503.41,487.82v-4.75a8.34,8.34,0,0,1-8.13,5.36,9.91,9.91,0,0,1-5.46-1.66c-5.31-3.48-5.42-10.83-5.42-12.15,0-1.6.22-8.62,5.69-12.1a11.13,11.13,0,0,1,5.69-1.6,8.56,8.56,0,0,1,5.86,2.1,6.23,6.23,0,0,1,1.77,2.65V448.82h3.2v39Zm-3.1-22.59A7.6,7.6,0,0,0,496,463.9a6.86,6.86,0,0,0-3.42.77c-2.28,1.22-4.59,4.21-4.59,9.95,0,.88-.11,10.71,7.84,10.71a6.49,6.49,0,0,0,5.14-2c2.21-2.21,2.54-5.63,2.54-8.5C503.57,469.54,502.52,466.83,500.31,465.23Z" transform="translate(-72.24 -102.2)"/><path class="cls-2" d="M532.68,476.06a10.33,10.33,0,0,0,.88,4.36c1.11,2.43,4,5.13,9.94,5.13a15.78,15.78,0,0,0,4.42-.55c3.59-1.1,6.35-3.81,6.35-7.73a7,7,0,0,0-1-3.76c-1.33-2.1-3.54-3-8.07-4.25a46.84,46.84,0,0,1-8.56-2.65,9.22,9.22,0,0,1-5.63-8.67,8.63,8.63,0,0,1,1.87-5.8c3.38-4.36,9.95-4.31,11-4.31,4.26,0,8.35,1.16,11.17,4.53a13.39,13.39,0,0,1,2.26,4l-3.43,1.82a11,11,0,0,0-1.6-3.37c-1.1-1.6-3.76-4-8.51-4-.77,0-4.91.05-7.34,2.48a5.86,5.86,0,0,0-1.82,4.48,6,6,0,0,0,1.15,3.64c1.72,2.27,4.59,2.93,7.13,3.65,3.65.94,8.57,1.93,11.55,4.42a9.5,9.5,0,0,1,3.64,7.62,10.77,10.77,0,0,1-4.8,8.89c-1.82,1.27-4.65,2.76-9.73,2.76-7.45,0-12.92-3.2-14.52-10.82Z" transform="translate(-72.24 -102.2)"/><path class="cls-2" d="M582.83,468.16a7.35,7.35,0,0,0-7.13-4.42,8.22,8.22,0,0,0-5.46,1.93c-3.43,2.93-3.49,7.84-3.49,9,0,.78.12,5.31,2.49,8.23a7.63,7.63,0,0,0,2.59,1.94,7.94,7.94,0,0,0,3.6.77,7.57,7.57,0,0,0,7.12-4.42l3.31.77a11.81,11.81,0,0,1-2.86,3.93,11.17,11.17,0,0,1-7.68,2.59,11.43,11.43,0,0,1-8.07-3c-3.92-3.7-4-9.17-4-10.66a16.35,16.35,0,0,1,.83-5.47,11.83,11.83,0,0,1,11.82-8.56c4.19,0,6.4,1.6,7.67,2.93a9.73,9.73,0,0,1,2.32,3.69Z" transform="translate(-72.24 -102.2)"/><path class="cls-2" d="M591.67,455.29v-5h3.2v5Zm0,32.53V461.47h3.2v26.35Z" transform="translate(-72.24 -102.2)"/><path class="cls-2" d="M625.74,474.62l-20.43.05a13.9,13.9,0,0,0,.49,4.43,8.15,8.15,0,0,0,8.45,6.4c2.32,0,6-.56,8.45-5.52l3,.88a18.14,18.14,0,0,1-2,3.42,11.28,11.28,0,0,1-9.39,4.2,13.14,13.14,0,0,1-6.08-1.38c-6.3-3.26-6.52-11-6.52-12.7a17.39,17.39,0,0,1,.83-5.36,11.86,11.86,0,0,1,11.33-8.23,11.11,11.11,0,0,1,8.45,3.76,14.56,14.56,0,0,1,3.42,9.28ZM622,471.91c-.78-6.79-5.31-8.17-8.18-8.17a8.18,8.18,0,0,0-7.46,4.58,14.87,14.87,0,0,0-1,3.65Z" transform="translate(-72.24 -102.2)"/><path class="cls-2" d="M648.84,487.82v-13.7c0-3.53,0-5.63-.62-7.18a4.35,4.35,0,0,0-2-2.27,7.2,7.2,0,0,0-3.59-.83,7.52,7.52,0,0,0-3.48.73,7.9,7.9,0,0,0-4,5,44.35,44.35,0,0,0-.33,6.69v11.54H631.6V461.47h3.26v4.7a6.52,6.52,0,0,1,1.88-2.93,8.71,8.71,0,0,1,6.41-2.32c4.91,0,7.12,2.71,8,4.53.94,2.1.89,4.2.94,8.67v13.7Z" transform="translate(-72.24 -102.2)"/><path class="cls-2" d="M677.51,468.16a7.32,7.32,0,0,0-7.12-4.42,8.31,8.31,0,0,0-5.47,1.93c-3.42,2.93-3.48,7.84-3.48,9,0,.78.11,5.31,2.49,8.23a7.24,7.24,0,0,0,2.6,1.93,7.68,7.68,0,0,0,3.58.78,7.59,7.59,0,0,0,7.13-4.42l3.31.78a11.76,11.76,0,0,1-2.87,3.92,11.08,11.08,0,0,1-7.68,2.59,11.42,11.42,0,0,1-8.06-3c-3.92-3.7-4-9.17-4-10.66a16.35,16.35,0,0,1,.83-5.47,11.83,11.83,0,0,1,11.82-8.56c4.2,0,6.4,1.6,7.68,2.93a9.67,9.67,0,0,1,2.31,3.7Z" transform="translate(-72.24 -102.2)"/><path class="cls-2" d="M707.91,474.62l-20.43.05a13.79,13.79,0,0,0,.49,4.42,8.15,8.15,0,0,0,8.45,6.41c2.33,0,6-.55,8.46-5.53l3,.89a17.08,17.08,0,0,1-2,3.42,11.28,11.28,0,0,1-9.39,4.2,13.27,13.27,0,0,1-6.08-1.38c-6.29-3.26-6.52-11-6.52-12.7a17.14,17.14,0,0,1,.84-5.36A11.84,11.84,0,0,1,696,460.81a11.1,11.1,0,0,1,8.45,3.76,14.55,14.55,0,0,1,3.42,9.27Zm-3.75-2.71c-.78-6.79-5.3-8.17-8.18-8.17a8.14,8.14,0,0,0-7.45,4.58,14.46,14.46,0,0,0-1,3.65Z" transform="translate(-72.24 -102.2)"/><path class="cls-2" d="M714.59,480.31c.44,1.82,2.42,5.19,7.34,5.19a8.07,8.07,0,0,0,4.87-1.32,5,5,0,0,0,1.87-3.82A4.29,4.29,0,0,0,728,478c-.82-1.16-2.15-1.82-5-2.43-2.6-.61-6.68-1.05-8.56-3.31a7,7,0,0,1-1.38-4.14A7.45,7.45,0,0,1,715.3,463c1.77-1.66,4.86-2.21,7.18-2.21a12.22,12.22,0,0,1,6.47,1.71,7.38,7.38,0,0,1,2.87,4.25l-3.09.83c-.61-3-3.76-3.92-6.41-3.92a7.92,7.92,0,0,0-4.31,1,4,4,0,0,0-1.16,1.16,4.56,4.56,0,0,0-.6,2.27c0,3.09,3.25,3.7,5.52,4.25l2.76.55c2.32.61,4.58,1.39,6,3.43a6.58,6.58,0,0,1,1.27,4,7.9,7.9,0,0,1-.83,3.54c-1,2-3.7,4.58-9,4.58a11,11,0,0,1-8.84-4,16,16,0,0,1-1.77-3.09Z" transform="translate(-72.24 -102.2)"/><path class="cls-2" d="M107.13,352.47H99.77V334.69H83v17.78H75.63V313.38H83v14.73H99.77V313.38h7.36Z" transform="translate(-72.24 -102.2)"/><path class="cls-2" d="M140,344.72a13.5,13.5,0,0,1-13,8.58,15.92,15.92,0,0,1-6.26-1.27c-2.87-1.33-8.13-5.15-8.13-13.52a15.66,15.66,0,0,1,1.21-6.19,13.44,13.44,0,0,1,13-8.37,15.27,15.27,0,0,1,6.09,1.28c3,1.27,8.14,5,8.2,13.28A17.05,17.05,0,0,1,140,344.72Zm-13.29-14.79a7.38,7.38,0,0,0-3.77,1.06c-1.43.94-3.37,3.21-3.37,7.36a12.27,12.27,0,0,0,.55,3.76c.5,1.33,2.38,5.1,6.92,5.1,5,0,7.26-4.43,7.14-8.8S131.55,329.93,126.68,329.93Z" transform="translate(-72.24 -102.2)"/><path class="cls-2" d="M171.36,344.66a14.57,14.57,0,0,1-1.77,3.38,13.38,13.38,0,0,1-10.75,5.26,14.84,14.84,0,0,1-5.76-1.27c-7.36-3.38-7.91-11.08-7.91-13.41a15,15,0,0,1,3-9.29,13.5,13.5,0,0,1,11-5.38,13.66,13.66,0,0,1,5.16,1,13,13,0,0,1,6.75,6.87l-5.93,2.76a6.81,6.81,0,0,0-1.65-2.82,6.14,6.14,0,0,0-4.66-1.88,5.87,5.87,0,0,0-4.76,2.16,9.81,9.81,0,0,0-2.05,6.42,10.67,10.67,0,0,0,.39,3c.83,3.22,3.1,5.6,6.59,5.6,4.76,0,6.2-4.21,6.7-5.43Z" transform="translate(-72.24 -102.2)"/><path class="cls-2" d="M181.65,327.61a10.07,10.07,0,0,1,2.66-2.05A11.73,11.73,0,0,1,190.4,324c3,0,6.37,1.11,8.2,3.66s1.71,5,1.71,7.75v17.11h-6.53V337.24c-.05-2.21.11-4.21-1.77-5.81a4.93,4.93,0,0,0-3.43-1.16,6.8,6.8,0,0,0-5.49,2.65,6.34,6.34,0,0,0-1.21,2.33,8.16,8.16,0,0,0-.23,2.38v14.84H175V313.38h6.64Z" transform="translate(-72.24 -102.2)"/><path class="cls-2" d="M225.34,333.48a6.56,6.56,0,0,0-1.72-2.22,8.2,8.2,0,0,0-5.81-2,6.66,6.66,0,0,0-3.38.83,2.52,2.52,0,0,0-1.22,2,2.55,2.55,0,0,0,.89,1.72,13.88,13.88,0,0,0,4.76,1.38c1.5.28,3,.5,4.49.83a12,12,0,0,1,4.37,1.72,7.35,7.35,0,0,1,3,6,8.1,8.1,0,0,1-.94,3.77c-1.32,2.54-4.76,5.7-11.51,5.7a20.41,20.41,0,0,1-10.63-2.83,15.77,15.77,0,0,1-2.66-2.15l5-4.05a7.84,7.84,0,0,0,1.28,1.39c2.38,2,5.92,2.16,6.7,2.16,1.65,0,3.6-.39,4.7-1.66a2.42,2.42,0,0,0,.72-1.61,1.88,1.88,0,0,0-.44-1.16c-.72-1-1.61-1.05-3.66-1.5-1.82-.39-3.65-.6-5.42-1.05-1.22-.33-7.59-1.88-7.64-7.86a8.44,8.44,0,0,1,1.27-4.26c1.39-2.16,4.65-4.77,10.63-4.77a15.52,15.52,0,0,1,11.91,5.15Z" transform="translate(-72.24 -102.2)"/><path class="cls-2" d="M260.17,344.66A14.57,14.57,0,0,1,258.4,348a13.38,13.38,0,0,1-10.75,5.26,14.9,14.9,0,0,1-5.76-1.27C234.53,348.65,234,341,234,338.62a15,15,0,0,1,3-9.29A13.9,13.9,0,0,1,253.13,325a12.94,12.94,0,0,1,6.76,6.87L254,334.58a6.79,6.79,0,0,0-1.67-2.82,6.1,6.1,0,0,0-4.65-1.88,5.85,5.85,0,0,0-4.76,2.16,9.81,9.81,0,0,0-2,6.42,11.06,11.06,0,0,0,.39,3c.83,3.22,3.1,5.6,6.59,5.6,4.76,0,6.2-4.21,6.7-5.43Z" transform="translate(-72.24 -102.2)"/><path class="cls-2" d="M270.46,327.61a10.07,10.07,0,0,1,2.66-2.05,11.77,11.77,0,0,1,6.09-1.61c3.05,0,6.37,1.11,8.2,3.66s1.71,5,1.71,7.75v17.11h-6.53V337.24c0-2.21.11-4.21-1.77-5.81a4.93,4.93,0,0,0-3.43-1.16,6.8,6.8,0,0,0-5.49,2.65,6.34,6.34,0,0,0-1.21,2.33,8.16,8.16,0,0,0-.23,2.38v14.84h-6.64V313.38h6.64Z" transform="translate(-72.24 -102.2)"/><path class="cls-2" d="M321.24,352.47h-6.65l0-2.83a12.45,12.45,0,0,1-8.92,3.49c-4.59,0-6.86-2-8-3.65-1.77-2.6-1.61-5.76-1.61-8.75v-16h6.71v15c-.06,2.27-.12,5,2.21,6.31a6.39,6.39,0,0,0,3.21.84,6,6,0,0,0,5.37-3.1c1.11-2.11,1-5.1,1-7.26V324.78h6.65Z" transform="translate(-72.24 -102.2)"/><path class="cls-2" d="M335.25,352.47h-6.76V313.38h6.76Z" transform="translate(-72.24 -102.2)"/><path class="cls-2" d="M347.65,340a7.9,7.9,0,0,0,1.77,4.2,7.11,7.11,0,0,0,6,2.66,7.84,7.84,0,0,0,7.25-3.82l5.64,3.27a17.89,17.89,0,0,1-2.54,2.88,16.13,16.13,0,0,1-11,4.15,14.37,14.37,0,0,1-9.91-3.71c-3.15-3-4.31-6.81-4.31-11.13a16.91,16.91,0,0,1,1.21-6.64c1.22-2.77,4.65-7.87,12.68-7.87,6.2,0,9.47,3.21,10.91,5.32,1.27,1.94,2.55,5.31,2.71,10.69ZM360.83,335a9.65,9.65,0,0,0-.56-2.22,5.78,5.78,0,0,0-5.65-3.54,6.55,6.55,0,0,0-2.76.5,6.92,6.92,0,0,0-4,5.31Z" transform="translate(-72.24 -102.2)"/><text x="-72.24" y="-102.2"/></svg>