<?xml version="1.0" encoding="UTF-8" standalone="no"?>
<svg
   xmlns:dc="http://purl.org/dc/elements/1.1/"
   xmlns:cc="http://creativecommons.org/ns#"
   xmlns:rdf="http://www.w3.org/1999/02/22-rdf-syntax-ns#"
   xmlns:svg="http://www.w3.org/2000/svg"
   xmlns="http://www.w3.org/2000/svg"
   viewBox="0 0 498.61334 316.05334"
   height="316.05334"
   width="498.61334"
   xml:space="preserve"
   id="svg2"
   version="1.1"><metadata
     id="metadata8"><rdf:RDF><cc:Work
         rdf:about=""><dc:format>image/svg+xml</dc:format><dc:type
           rdf:resource="http://purl.org/dc/dcmitype/StillImage" /></cc:Work></rdf:RDF></metadata><defs
     id="defs6" /><g
     transform="matrix(1.3333333,0,0,-1.3333333,0,316.05333)"
     id="g10"><g
       transform="scale(0.1)"
       id="g12"><path
         id="path14"
         style="fill:#231f20;fill-opacity:1;fill-rule:nonzero;stroke:none"
         d="m 690.777,565.449 h 124.157 v -27.937 h -92.407 v -64.793 h 84.149 V 444.781 H 722.527 V 371.75 h 92.407 V 343.809 H 690.777 v 221.64" /><path
         id="path16"
         style="fill:#231f20;fill-opacity:1;fill-rule:nonzero;stroke:none"
         d="m 899.059,428.59 -52.711,77.16 H 883.5 l 35.246,-57.789 35.883,57.789 h 33.34 l -52.074,-77.16 57.152,-84.781 h -36.832 l -40.008,63.5 -40.012,-63.5 h -35.566 l 58.43,84.781" /><path
         id="path18"
         style="fill:#231f20;fill-opacity:1;fill-rule:nonzero;stroke:none"
         d="m 1025.42,505.75 h 29.85 V 343.809 h -29.85 z m 31.75,36.199 h -33.65 v 33.66 h 33.65 v -33.66" /><path
         id="path20"
         style="fill:#231f20;fill-opacity:1;fill-rule:nonzero;stroke:none"
         d="m 1097.81,375.57 c 11.75,-7.629 28.58,-11.441 37.15,-11.441 13.65,0 30.48,5.711 30.48,23.18 0,29.543 -70.17,26.992 -70.17,72.402 0,33.66 25.09,49.848 57.16,49.848 13.97,0 25.4,-2.848 37.15,-6.348 l -2.54,-26.031 c -6.67,4.121 -24.45,8.25 -31.44,8.25 -15.24,0 -28.58,-6.352 -28.58,-19.692 0,-33.027 70.18,-23.488 70.18,-75.25 0,-34.609 -27.63,-50.488 -56.52,-50.488 -15.25,0 -30.8,1.578 -44.46,8.891 l 1.59,26.679" /><path
         id="path22"
         style="fill:#231f20;fill-opacity:1;fill-rule:nonzero;stroke:none"
         d="m 1319.43,481.621 h -42.86 v -88.59 c 0,-18.73 11.43,-28.902 25.08,-28.902 9.21,0 15.88,2.859 20.32,5.711 v -25.399 c -6.66,-1.902 -15.87,-4.441 -25.4,-4.441 -30.8,0 -49.85,14.609 -49.85,46.988 v 94.633 h -36.52 v 24.129 h 36.52 v 37.469 l 29.85,9.519 V 505.75 h 42.86 v -24.129" /><path
         id="path24"
         style="fill:#231f20;fill-opacity:1;fill-rule:nonzero;stroke:none"
         d="m 1461.67,440.34 c 0,24.769 -14.6,45.09 -40.32,45.09 -29.22,0 -41.28,-24.129 -43.5,-45.09 z m 19.37,-89.86 c -11.43,-4.128 -24.45,-10.48 -51.12,-10.48 -57.47,0 -83.83,34.93 -83.83,87.641 0,47.949 30.16,81.918 75.89,81.918 53.98,0 71.45,-39.368 71.45,-91.45 h -115.58 c 0,-32.07 25.08,-53.98 53.34,-53.98 19.69,0 42.55,10.172 49.85,16.191 v -29.84" /><path
         id="path26"
         style="fill:#231f20;fill-opacity:1;fill-rule:nonzero;stroke:none"
         d="m 1533.41,505.75 h 28.9 v -25.719 h 0.63 c 8.9,18.418 30.49,29.528 53.04,29.528 41.91,0 60.65,-26.039 60.65,-69.539 v -96.211 h -29.85 v 83.832 c 0,37.781 -8.26,56.199 -34.3,57.789 -33.97,0 -49.22,-27.309 -49.22,-66.68 v -74.941 h -29.85 V 505.75" /><path
         id="path28"
         style="fill:#231f20;fill-opacity:1;fill-rule:nonzero;stroke:none"
         d="m 1715.65,369.84 93.36,111.781 h -88.91 v 24.129 h 123.52 v -26.031 l -93.35,-111.778 h 96.84 v -24.132 h -131.46 v 26.031" /><path
         id="path30"
         style="fill:#231f20;fill-opacity:1;fill-rule:nonzero;stroke:none"
         d="m 1999.52,422.871 c 0,33.66 -15.56,62.559 -47.32,62.559 -30.16,0 -45.09,-32.711 -45.09,-60.328 0,-30.493 17.15,-57.161 45.09,-57.161 27.95,0 47.32,24.758 47.32,54.93 z m 29.85,-72.082 c 0,-49.219 -25.41,-77.469 -83.52,-77.469 -17.14,0 -32.07,2.219 -58.11,11.11 l 3.18,27.621 c 22.86,-10.481 36.52,-14.602 58.43,-14.602 31.43,0 50.17,21.27 50.17,55.571 v 15.878 h -0.64 c -12.7,-16.839 -33.66,-25.089 -54.3,-25.089 -46.36,0 -69.22,37.781 -69.22,79.703 0,41.597 23.5,86.047 72.4,86.047 28.57,0 44.45,-10.481 53.34,-27.938 h 0.64 v 24.129 h 27.63 V 350.789" /><path
         id="path32"
         style="fill:#231f20;fill-opacity:1;fill-rule:nonzero;stroke:none"
         d="m 2080.14,505.75 h 27.95 v -25.09 h 0.63 c 7.94,16.84 25.09,28.899 42.23,28.899 8.89,0 13.34,-0.95 19.69,-2.219 v -26.68 c -5.4,2.231 -11.43,2.86 -16.51,2.86 -26.67,0 -44.14,-25.399 -44.14,-66.04 v -73.671 h -29.85 V 505.75" /><path
         id="path34"
         style="fill:#231f20;fill-opacity:1;fill-rule:nonzero;stroke:none"
         d="m 2286.53,562.27 h 29.85 v -31.75 h -29.85 z m -52.08,0 h 29.85 v -31.75 h -29.85 z m 112.41,-218.461 h -28.9 v 25.722 h -0.63 C 2308.44,351.109 2286.85,340 2264.3,340 c -41.92,0 -60.65,26.031 -60.65,69.539 v 96.211 h 29.85 v -83.832 c 0,-37.789 8.25,-56.199 34.29,-57.789 33.98,0 49.22,27.312 49.22,66.68 v 74.941 h 29.85 V 343.809" /><path
         id="path36"
         style="fill:#231f20;fill-opacity:1;fill-rule:nonzero;stroke:none"
         d="m 2397.64,505.75 h 28.89 v -25.719 h 0.64 c 8.89,18.418 30.48,29.528 53.03,29.528 41.91,0 60.65,-26.039 60.65,-69.539 V 343.809 H 2511 v 83.832 c 0,37.781 -8.26,56.199 -34.3,57.789 -33.97,0 -49.21,-27.309 -49.21,-66.68 v -74.941 h -29.85 V 505.75" /><path
         id="path38"
         style="fill:#231f20;fill-opacity:1;fill-rule:nonzero;stroke:none"
         d="m 2657.36,364.129 c 33.66,0 47.63,33.34 47.63,60.332 0,30.168 -15.56,60.969 -47.95,60.969 -32.39,0 -45.09,-30.489 -44.45,-60.008 -0.64,-25.41 12.7,-61.293 44.77,-61.293 z m 48.89,2.543 h -0.63 C 2697.68,354.609 2679.27,340 2650.37,340 c -48.9,0 -69.54,43.5 -69.54,87.641 0,43.5 22.87,81.918 69.86,81.918 28.26,0 44.45,-11.11 53.66,-26.039 h 0.64 v 98.441 h 29.85 V 343.809 h -28.59 v 22.863" /><path
         id="path40"
         style="fill:#231f20;fill-opacity:1;fill-rule:nonzero;stroke:none"
         d="m 2928.83,343.809 h -28.89 v 25.722 h -0.64 C 2890.41,351.109 2868.81,340 2846.27,340 c -41.91,0 -60.65,26.031 -60.65,69.539 v 96.211 h 29.85 v -83.832 c 0,-37.789 8.26,-56.199 34.29,-57.789 33.99,0 49.22,27.312 49.22,66.68 v 74.941 h 29.85 V 343.809" /><path
         id="path42"
         style="fill:#231f20;fill-opacity:1;fill-rule:nonzero;stroke:none"
         d="m 2979.6,505.75 h 28.9 v -25.719 h 0.64 c 8.89,18.418 30.48,29.528 53.02,29.528 41.92,0 60.66,-26.039 60.66,-69.539 v -96.211 h -29.86 v 83.832 c 0,37.781 -8.25,56.199 -34.28,57.789 -33.99,0 -49.22,-27.309 -49.22,-66.68 V 343.809 H 2979.6 V 505.75" /><path
         id="path44"
         style="fill:#231f20;fill-opacity:1;fill-rule:nonzero;stroke:none"
         d="m 3286.96,422.871 c 0,33.66 -15.56,62.559 -47.32,62.559 -30.15,0 -45.08,-32.711 -45.08,-60.328 0,-30.493 17.14,-57.161 45.08,-57.161 27.95,0 47.32,24.758 47.32,54.93 z m 29.85,-72.082 c 0,-49.219 -25.4,-77.469 -83.51,-77.469 -17.15,0 -32.07,2.219 -58.11,11.11 l 3.17,27.621 c 22.87,-10.481 36.52,-14.602 58.43,-14.602 31.44,0 50.17,21.27 50.17,55.571 v 15.878 h -0.64 c -12.69,-16.839 -33.65,-25.089 -54.29,-25.089 -46.36,0 -69.22,37.781 -69.22,79.703 0,41.597 23.49,86.047 72.39,86.047 28.58,0 44.45,-10.481 53.35,-27.938 h 0.63 v 24.129 h 27.63 V 350.789" /><path
         id="path46"
         style="fill:#231f20;fill-opacity:1;fill-rule:nonzero;stroke:none"
         d="m 3472.37,440.34 c 0,24.769 -14.6,45.09 -40.32,45.09 -29.22,0 -41.28,-24.129 -43.51,-45.09 z m 19.37,-89.86 c -11.43,-4.128 -24.45,-10.48 -51.12,-10.48 -57.47,0 -83.83,34.93 -83.83,87.641 0,47.949 30.17,81.918 75.89,81.918 53.99,0 71.45,-39.368 71.45,-91.45 h -115.59 c 0,-32.07 25.09,-53.98 53.35,-53.98 19.69,0 42.55,10.172 49.85,16.191 v -29.84" /><path
         id="path48"
         style="fill:#231f20;fill-opacity:1;fill-rule:nonzero;stroke:none"
         d="m 3544.12,505.75 h 28.89 v -25.719 h 0.64 c 8.89,18.418 30.49,29.528 53.02,29.528 41.92,0 60.66,-26.039 60.66,-69.539 v -96.211 h -29.85 v 83.832 c 0,37.781 -8.26,56.199 -34.29,57.789 -33.99,0 -49.22,-27.309 -49.22,-66.68 v -74.941 h -29.85 V 505.75" /><path
         id="path50"
         style="fill:#231f20;fill-opacity:1;fill-rule:nonzero;stroke:none"
         d="m 782.543,80.9688 c -6.352,0 -12.699,0.6328 -19.051,0.6328 -16.191,0 -56.203,-2.543 -56.203,-31.1133 0,-17.1485 16.512,-26.3594 30.168,-26.3594 29.523,0 45.086,18.4219 45.086,42.5508 z M 693.949,154.32 c 14.93,8.891 32.707,15.239 53.352,15.239 46.355,0 65.094,-22.86 65.094,-67 V 35.5703 c 0,-18.4219 0.632,-26.99999 1.265,-31.76171 H 785.719 V 24.7695 h -0.637 C 778.102,14.9219 762.223,0 734.91,0 c -34.926,0 -59.379,15.2383 -59.379,50.4883 0,40.6406 44.457,53.3397 75.262,53.3397 11.746,0 20.004,0 31.75,-0.637 0,27.95 -10.16,42.239 -40.008,42.239 -16.832,0 -34.93,-6.352 -47,-16.508 l -1.586,25.398" /><path
         id="path52"
         style="fill:#231f20;fill-opacity:1;fill-rule:nonzero;stroke:none"
         d="M 1006.07,3.80859 H 977.172 V 29.5313 h -0.633 C 967.645,11.1094 946.055,0 923.508,0 881.594,0 862.855,26.0313 862.855,69.5391 V 165.75 h 29.848 V 81.9219 c 0,-37.793 8.258,-56.2031 34.301,-57.793 33.973,0 49.219,27.3125 49.219,66.6797 V 165.75 h 29.847 V 3.80859" /><path
         id="path54"
         style="fill:#231f20;fill-opacity:1;fill-rule:nonzero;stroke:none"
         d="m 1044.78,35.5703 c 11.75,-7.6289 28.58,-11.4414 37.15,-11.4414 13.66,0 30.49,5.7109 30.49,23.1797 0,29.543 -70.18,26.9922 -70.18,72.4024 0,33.66 25.09,49.848 57.16,49.848 13.97,0 25.4,-2.848 37.15,-6.348 l -2.54,-26.031 c -6.67,4.121 -24.45,8.25 -31.44,8.25 -15.24,0 -28.58,-6.352 -28.58,-19.692 0,-33.0271 70.18,-23.488 70.18,-75.2497 C 1144.17,15.8789 1116.54,0 1087.65,0 c -15.24,0 -30.8,1.57813 -44.46,8.89063 l 1.59,26.67967" /><path
         id="path56"
         style="fill:#231f20;fill-opacity:1;fill-rule:nonzero;stroke:none"
         d="m 1334.35,24.1289 c 33.66,0 47.63,33.3399 47.63,60.332 0,30.1681 -15.56,60.9691 -47.95,60.9691 -32.38,0 -45.09,-30.489 -44.45,-60.0081 -0.64,-25.4102 12.7,-61.293 44.77,-61.293 z m 48.9,2.543 h -0.63 C 1374.68,14.6094 1356.26,0 1327.36,0 c -48.9,0 -69.54,43.5 -69.54,87.6406 0,43.5004 22.87,81.9184 69.86,81.9184 28.26,0 44.46,-11.11 53.67,-26.039 h 0.63 v 98.441 h 29.85 V 3.80859 h -28.58 V 26.6719" /><path
         id="path58"
         style="fill:#231f20;fill-opacity:1;fill-rule:nonzero;stroke:none"
         d="m 1567.4,100.34 c 0,24.769 -14.61,45.09 -40.33,45.09 -29.21,0 -41.28,-24.129 -43.5,-45.09 z m 19.37,-89.8595 C 1575.34,6.35156 1562.31,0 1535.64,0 c -57.47,0 -83.83,34.9297 -83.83,87.6406 0,47.9494 30.17,81.9184 75.9,81.9184 53.97,0 71.44,-39.368 71.44,-91.4496 h -115.58 c 0,-32.0703 25.08,-53.9805 53.34,-53.9805 19.69,0 42.55,10.1719 49.86,16.1914 V 10.4805" /><path
         id="path60"
         style="fill:#231f20;fill-opacity:1;fill-rule:nonzero;stroke:none"
         d="m 1639.14,165.75 h 27.94 v -25.09 h 0.63 c 7.94,16.84 25.09,28.899 42.24,28.899 8.89,0 13.34,-0.95 19.68,-2.219 v -26.68 c -5.39,2.231 -11.43,2.86 -16.5,2.86 -26.68,0 -44.15,-25.399 -44.15,-66.0395 V 3.80859 h -29.84 V 165.75" /><path
         id="path62"
         style="fill:#231f20;fill-opacity:1;fill-rule:nonzero;stroke:none"
         d="m 1826.14,225.449 h 34.93 L 1914.1,35.5703 h 0.64 l 47.31,189.8787 h 45.09 l 47.95,-189.8787 h 0.63 l 53.03,189.8787 h 33.66 L 2074.14,3.80859 h -40.97 L 1984.91,197.512 h -0.63 L 1935.69,3.80859 h -42.55 l -67,221.64041" /><path
         id="path64"
         style="fill:#231f20;fill-opacity:1;fill-rule:nonzero;stroke:none"
         d="m 2172.22,165.75 h 29.85 V 3.80859 h -29.85 z m 31.75,36.199 h -33.65 v 33.66 h 33.65 v -33.66" /><path
         id="path66"
         style="fill:#231f20;fill-opacity:1;fill-rule:nonzero;stroke:none"
         d="m 2244.61,35.5703 c 11.75,-7.6289 28.58,-11.4414 37.15,-11.4414 13.66,0 30.49,5.7109 30.49,23.1797 0,29.543 -70.18,26.9922 -70.18,72.4024 0,33.66 25.09,49.848 57.16,49.848 13.97,0 25.4,-2.848 37.15,-6.348 l -2.54,-26.031 c -6.67,4.121 -24.45,8.25 -31.44,8.25 -15.24,0 -28.58,-6.352 -28.58,-19.692 0,-33.0271 70.18,-23.488 70.18,-75.2497 C 2344,15.8789 2316.37,0 2287.48,0 c -15.24,0 -30.81,1.57813 -44.46,8.89063 l 1.59,26.67967" /><path
         id="path68"
         style="fill:#231f20;fill-opacity:1;fill-rule:nonzero;stroke:none"
         d="m 2368.11,35.5703 c 11.75,-7.6289 28.58,-11.4414 37.15,-11.4414 13.66,0 30.49,5.7109 30.49,23.1797 0,29.543 -70.18,26.9922 -70.18,72.4024 0,33.66 25.09,49.848 57.16,49.848 13.97,0 25.4,-2.848 37.15,-6.348 l -2.54,-26.031 c -6.67,4.121 -24.45,8.25 -31.44,8.25 -15.24,0 -28.58,-6.352 -28.58,-19.692 0,-33.0271 70.18,-23.488 70.18,-75.2497 C 2467.5,15.8789 2439.87,0 2410.98,0 c -15.24,0 -30.8,1.57813 -44.46,8.89063 l 1.59,26.67967" /><path
         id="path70"
         style="fill:#231f20;fill-opacity:1;fill-rule:nonzero;stroke:none"
         d="m 2608.47,100.34 c 0,24.769 -14.61,45.09 -40.33,45.09 -29.21,0 -41.27,-24.129 -43.5,-45.09 z m 19.37,-89.8595 C 2616.41,6.35156 2603.39,0 2576.72,0 c -57.48,0 -83.83,34.9297 -83.83,87.6406 0,47.9494 30.16,81.9184 75.89,81.9184 53.98,0 71.44,-39.368 71.44,-91.4496 h -115.58 c 0,-32.0703 25.09,-53.9805 53.35,-53.9805 19.69,0 42.55,10.1719 49.85,16.1914 V 10.4805" /><path
         id="path72"
         style="fill:#231f20;fill-opacity:1;fill-rule:nonzero;stroke:none"
         d="m 2680.21,165.75 h 28.9 v -25.719 h 0.63 c 8.9,18.418 30.49,29.528 53.03,29.528 41.91,0 60.65,-26.039 60.65,-69.539 V 3.80859 h -29.85 V 87.6406 c 0,37.7814 -8.25,56.1994 -34.29,57.7894 -33.98,0 -49.22,-27.309 -49.22,-66.68 V 3.80859 h -29.85 V 165.75" /><path
         id="path74"
         style="fill:#231f20;fill-opacity:1;fill-rule:nonzero;stroke:none"
         d="m 2862.14,35.5703 c 11.75,-7.6289 28.58,-11.4414 37.15,-11.4414 13.65,0 30.48,5.7109 30.48,23.1797 0,29.543 -70.17,26.9922 -70.17,72.4024 0,33.66 25.08,49.848 57.15,49.848 13.98,0 25.41,-2.848 37.16,-6.348 l -2.54,-26.031 c -6.67,4.121 -24.45,8.25 -31.43,8.25 -15.25,0 -28.59,-6.352 -28.59,-19.692 0,-33.0271 70.18,-23.488 70.18,-75.2497 C 2961.53,15.8789 2933.9,0 2905,0 c -15.23,0 -30.8,1.57813 -44.45,8.89063 l 1.59,26.67967" /><path
         id="path76"
         style="fill:#231f20;fill-opacity:1;fill-rule:nonzero;stroke:none"
         d="m 3100.59,138.449 c -11.42,4.75 -22.86,6.981 -32.38,6.981 -33.34,0 -52.08,-29.84 -52.08,-60.6605 0,-28.8789 15.55,-60.6406 53.98,-60.6406 10.16,0 22.86,3.1719 32.07,9.2109 l 2.23,-26.66792 C 3092.02,0.949219 3077.73,0 3066.94,0 c -48.91,0 -82.56,38.4219 -82.56,84.7695 0,49.2185 33.02,84.7895 82.56,84.7895 12.06,0 27.63,-2.848 36.19,-6.348 l -2.54,-24.762" /><path
         id="path78"
         style="fill:#231f20;fill-opacity:1;fill-rule:nonzero;stroke:none"
         d="m 3138.68,241.961 h 29.85 V 142.57 h 0.64 c 10.79,17.149 29.53,26.989 52.07,26.989 41.91,0 60.65,-26.039 60.65,-69.539 V 3.80859 h -29.85 V 87.6406 c 0,37.7814 -8.26,56.1994 -34.29,57.7894 -33.99,0 -49.22,-27.309 -49.22,-66.68 V 3.80859 h -29.85 V 241.961" /><path
         id="path80"
         style="fill:#231f20;fill-opacity:1;fill-rule:nonzero;stroke:none"
         d="m 3428.87,80.9688 c -6.35,0 -12.69,0.6328 -19.04,0.6328 -16.2,0 -56.21,-2.543 -56.21,-31.1133 0,-17.1485 16.51,-26.3594 30.16,-26.3594 29.54,0 45.09,18.4219 45.09,42.5508 z m -88.58,73.3512 c 14.92,8.891 32.7,15.239 53.34,15.239 46.37,0 65.1,-22.86 65.1,-67 V 35.5703 c 0,-18.4219 0.63,-26.99999 1.27,-31.76171 h -27.94 V 24.7695 h -0.64 C 3424.43,14.9219 3408.55,0 3381.25,0 c -34.94,0 -59.38,15.2383 -59.38,50.4883 0,40.6406 44.45,53.3397 75.25,53.3397 11.75,0 20,0 31.75,-0.637 0,27.95 -10.15,42.239 -40,42.239 -16.83,0 -34.93,-6.352 -47,-16.508 l -1.58,25.398" /><path
         id="path82"
         style="fill:#231f20;fill-opacity:1;fill-rule:nonzero;stroke:none"
         d="m 3528.57,141.621 h -38.11 v 24.129 h 38.11 v 14.922 c 0,39.379 10.16,65.098 54.3,65.098 7.61,0 13.97,-0.961 20,-1.899 l -1.27,-24.133 c -3.49,1.274 -9.21,1.903 -14.29,1.903 -25.72,0 -28.9,-16.512 -28.9,-38.43 V 165.75 h 42.87 v -24.129 h -42.87 V 3.80859 h -29.84 V 141.621" /><path
         id="path84"
         style="fill:#231f20;fill-opacity:1;fill-rule:nonzero;stroke:none"
         d="m 3718.75,141.621 h -42.87 V 53.0313 c 0,-18.7305 11.44,-28.9024 25.09,-28.9024 9.21,0 15.88,2.8594 20.32,5.7109 V 4.44141 C 3714.62,2.53906 3705.42,0 3695.89,0 c -30.8,0 -49.85,14.6094 -49.85,46.9883 v 94.6327 h -36.51 v 24.129 h 36.51 v 37.469 l 29.84,9.519 V 165.75 h 42.87 v -24.129" /><path
         id="path86"
         style="fill:#231f20;fill-opacity:1;fill-rule:nonzero;stroke:none"
         d="m 635.797,1485.61 c 3.398,25.5 5.098,45.9 5.098,66.3 0,102 -62.903,175.1 -183.598,175.1 -130.902,0 -231.199,-113.9 -265.195,-241.4 z m 20.398,-501.489 c -83.3,-20.402 -170,-35.699 -256.699,-35.699 C 188.699,948.422 0,1033.42 0,1339.41 c 0,239.7 168.301,516.8 474.297,516.8 209.098,0 326.394,-125.8 326.394,-331.5 0,-57.8 -6.8,-107.1 -15.296,-158.09 H 175.098 c -3.399,-18.71 -5.098,-35.7 -5.098,-54.4 0,-181.91 112.195,-234.6 266.898,-234.6 79.899,0 166.598,20.4 244.797,52.69 l -25.5,-146.189" /><path
         id="path88"
         style="fill:#231f20;fill-opacity:1;fill-rule:nonzero;stroke:none"
         d="m 2169.17,1843.64 h 125.8 l -186.82,-869.3 h -125.79 l 186.81,869.3" /><path
         id="path90"
         style="fill:none;stroke:#231f20;stroke-width:10;stroke-linecap:butt;stroke-linejoin:miter;stroke-miterlimit:4;stroke-dasharray:none;stroke-opacity:1"
         d="m 2169.17,1843.64 h 125.8 l -186.82,-869.3 h -125.79 z" /><path
         id="path92"
         style="fill:#231f20;fill-opacity:1;fill-rule:nonzero;stroke:none"
         d="m 2891.51,1706.64 c -41.1,24.91 -92.16,42.35 -158.17,42.35 -82.2,0 -171.87,-32.38 -171.87,-135.75 0,-145.72 296.42,-146.96 296.42,-374.87 0,-130.77 -90.92,-278.979 -300.15,-278.979 -100.88,0 -173.12,22.418 -242.86,49.819 l 39.85,114.58 c 51.07,-32.38 122.05,-54.81 183.08,-54.81 132.01,0 188.05,82.2 188.05,154.44 0,176.85 -296.4,145.72 -296.4,387.33 0,158.16 144.47,247.84 287.69,247.84 72.23,0 143.23,-13.7 209.23,-41.11 l -34.87,-110.84" /><path
         id="path94"
         style="fill:none;stroke:#231f20;stroke-width:10;stroke-linecap:butt;stroke-linejoin:miter;stroke-miterlimit:4;stroke-dasharray:none;stroke-opacity:1"
         d="m 2891.51,1706.64 c -41.1,24.91 -92.16,42.35 -158.17,42.35 -82.2,0 -171.87,-32.38 -171.87,-135.75 0,-145.72 296.42,-146.96 296.42,-374.87 0,-130.77 -90.92,-278.979 -300.15,-278.979 -100.88,0 -173.12,22.418 -242.86,49.819 l 39.85,114.58 c 51.07,-32.38 122.05,-54.81 183.08,-54.81 132.01,0 188.05,82.2 188.05,154.44 0,176.85 -296.4,145.72 -296.4,387.33 0,158.16 144.47,247.84 287.69,247.84 72.23,0 143.23,-13.7 209.23,-41.11 z" /><path
         id="path96"
         style="fill:#231f20;fill-opacity:1;fill-rule:nonzero;stroke:none"
         d="m 3709.73,1734.04 h -270.25 l -163.16,-759.7 h -125.78 l 163.15,759.7 h -270.26 l 23.66,109.6 h 666.3 l -23.66,-109.6" /><path
         id="path98"
         style="fill:none;stroke:#231f20;stroke-width:10;stroke-linecap:butt;stroke-linejoin:miter;stroke-miterlimit:4;stroke-dasharray:none;stroke-opacity:1"
         d="m 3709.73,1734.04 h -270.25 l -163.16,-759.7 h -125.78 l 163.15,759.7 h -270.26 l 23.66,109.6 h 666.3 z" /><path
         id="path100"
         style="fill:#ed1c24;fill-opacity:1;fill-rule:nonzero;stroke:none"
         d="M 1522.14,1407.7 1817.96,825.59 H 1522.14 L 1326.51,1247.86 887.539,758.789 684.75,890 1212,1438.71 928.098,2011.29 H 1212 l 190.85,-417.5 431.82,481.91 198.01,-126.44 -510.54,-541.56" /><path
         id="path102"
         style="fill:#bdbcbc;fill-opacity:1;fill-rule:nonzero;stroke:none"
         d="m 1651.79,2208.6 c 0,-89.33 -72.41,-161.78 -161.79,-161.78 -89.37,0 -161.81,72.45 -161.81,161.78 0,89.34 72.44,161.8 161.81,161.8 89.38,0 161.79,-72.46 161.79,-161.8" /></g></g></svg>