<svg xmlns="http://www.w3.org/2000/svg" viewBox="0 0 94 61" enable-background="new 0 0 94 61" width="94" height="61"><style type="text/css">.st0{fill:#FFED00;} .st1{fill:#164194;}</style><path id="XMLID_70_" class="st0" d="M59.5 11.8l-1.6 5.1-5.1.1 4.1 3.2-1.5 5.2 4.2-3.1 4.2 3.1-1.5-5.2 4.1-3.2-5.1-.1-1.8-5.1zm26.1 30l-5.1.1 4.1 3.3-1.6 5.1 4.2-3.1 4.2 3.1-1.5-5.1 4.1-3.3-5.1-.1-1.6-5.1-1.7 5.1zm-9.2-19.9l1.7 5.1 5.1.1-4.1 3.2 1.5 5.1-4.2-3.1-4.2 3.1 1.5-5.1-4.1-3.2 5.1-.1 1.7-5.1z"/><path id="XMLID_37_" class="st1" d="M6.4 18.5l-4 5.4h3.3l-.2 1.1h-5l.1-.8 4-5.4h-3l.2-1.1h4.7l-.1.8zm4.3 6.5h-1.2l.1-.7c-.3.3-.6.8-1.6.8-.8 0-1.3-.5-1.3-1.5 0-.3.1-.7.1-1.1l.4-2.7h1.3l-.4 2.7c-.1.4-.1.7-.1.8 0 .5.1.7.5.7s.8-.3 1-.4l.6-3.7h1.3l-.7 5.1zm4.5-3.9c-.2-.1-.5-.3-1-.3-.4 0-.6.2-.6.4 0 .3.2.4.5.7l.3.2c.6.4.9.8.9 1.5 0 .9-.7 1.6-1.9 1.6-.8 0-1.3-.4-1.6-.5l.4-1.1c.2.2.6.5 1.1.5.4 0 .6-.1.6-.4 0-.3-.2-.4-.6-.7l-.3-.2c-.5-.4-.8-.8-.8-1.4 0-.9.8-1.5 1.9-1.5.7 0 1.1.3 1.3.4.1-.2-.2.8-.2.8zm5.1 3.9h-1.2l.1-.6c-.2.2-.6.7-1.5.7-.8 0-1.5-.6-1.5-2.1 0-2.1 1.3-3.3 2.7-3.3.7 0 1 .3 1.2.4l.3-.3h.6l-.7 5.2zm-2-1c.5 0 .8-.3.9-.4l.4-2.6c-.1-.1-.3-.2-.6-.2-.8 0-1.5.7-1.5 2.2.1.7.3 1 .8 1zm10.9-1.7l-.5 2.7h-1.3l.4-2.7c.1-.3.1-.6.1-.8 0-.4-.2-.7-.5-.7-.5 0-.8.3-1 .4 0 .3-.1.7-.1 1.1l-.4 2.7h-1.3l.4-2.7c.1-.3.1-.6.1-.8 0-.4-.2-.7-.5-.7-.4 0-.8.3-.9.4l-.6 3.8h-1.3l.8-5.1h1.2l-.1.7c.3-.3.7-.8 1.6-.8.6 0 .9.3 1.1.7.3-.3.8-.7 1.7-.7s1.3.5 1.3 1.5c-.1.3-.2.7-.2 1zm8.3 0l-.4 2.7h-1.3l.4-2.7c.1-.3.1-.6.1-.8 0-.4-.2-.7-.5-.7-.5 0-.8.3-1 .4 0 .3-.1.7-.1 1.1l-.4 2.7h-1.3l.4-2.7c.1-.3.1-.6.1-.8 0-.4-.2-.7-.5-.7-.4 0-.8.3-.9.4l-.7 3.8h-1.3l.8-5.1h1.2l-.1.6c.3-.3.7-.8 1.6-.8.6 0 .9.3 1.1.7.3-.3.8-.7 1.7-.7.8 0 1.3.5 1.3 1.5-.1.4-.1.8-.2 1.1zm2.7.5h-.4v.2c0 .7.3 1.1.9 1.1.6 0 1.1-.3 1.2-.4l.3.9c-.2.2-.6.6-1.7.6-1.2 0-2-.6-2-2.2 0-2.1 1.3-3.2 2.7-3.2.8 0 1.3.4 1.3 1.3 0 1.1-.9 1.7-2.3 1.7zm-.3-.8h.2c1 0 1.3-.3 1.3-.8 0-.3-.2-.4-.4-.4-.5 0-.9.4-1.1 1.2zm7.9.3l-.4 2.7h-1.3l.4-2.7c.1-.3.1-.6.1-.8 0-.5-.2-.7-.6-.7-.5 0-.8.3-1.1.4l-.5 3.8h-1.3l.8-5.1h1.2l-.1.6c.3-.3.8-.8 1.7-.8.8 0 1.3.5 1.3 1.5-.1.3-.1.7-.2 1.1zm1.6 2.8c-.5 0-.8-.3-.8-.8s.3-.8.8-.8.8.3.8.8c0 .6-.3.8-.8.8zm-43 6l-4 5.4h3.3l-.3 1.1h-4.9l.1-.8 4-5.4h-3l.2-1.1h4.7l-.1.8zm4.3 6.6h-1.2l.1-.7c-.3.3-.6.8-1.6.8-.8 0-1.3-.5-1.3-1.5 0-.3.1-.7.1-1.1l.4-2.7h1.3l-.4 2.7c-.1.3-.1.6-.1.8 0 .5.2.7.5.7.4 0 .8-.3 1-.4l.6-3.7h1.3l-.7 5.1zm5.9-5.2c0 .1.1.3.1.5 0 1.2-.5 1.9-1.4 2.2l1.1 2.4h-1.5l-.8-2.1h-.5l-.3 2.1h-1.3l1.2-7.4 1.3-.1-.7 4.4h.1c.9 0 1.4-.4 1.4-1.5 0-.3 0-.4-.1-.5h1.4zm4.8 5.2h-1.2l.1-.7c-.3.3-.7.8-1.6.8-.8 0-1.3-.5-1.3-1.5 0-.3.1-.7.1-1.1l.4-2.7h1.3l-.4 2.7c-.1.3-.1.6-.1.8 0 .5.2.7.5.7.4 0 .8-.3 1-.4l.6-3.7h1.3l-.7 5.1zm6.1-2.7l-.4 2.7h-1.3l.4-2.7c.1-.3.1-.6.1-.8 0-.5-.2-.7-.6-.7-.5 0-.8.3-1.1.4l-.6 3.7h-1.3l.8-5.1h1.2l-.1.7c.3-.3.8-.8 1.7-.8.8 0 1.3.5 1.3 1.5 0 .2 0 .6-.1 1.1zm4.6-3.8c-.1-.1-.3-.1-.5-.1-.5 0-.7.2-.8.9l-.1.5h1.2l-.2 1.1h-1.2l-.6 3.8c-.3 1.7-1.1 2.4-2.6 2.5l-.2-1.1c.9-.1 1.3-.4 1.4-1.5l.6-3.8h-.7l.2-.9.7-.1.1-.5c.2-1.4.9-2 2.1-2 .4 0 .7.2.8.2l-.2 1zm3.3 2.4h-1.2l-.3 1.8c-.1.3-.1.6-.1.8 0 .4.2.5.5.5s.4-.1.5-.1l.1.9c-.2.1-.5.2-1.1.2-.8 0-1.4-.4-1.4-1.4 0-.3.1-.6.1-1l.3-1.8h-.7l.2-.9.7-.1.4-1.4h1.2l-.2 1.4h1.2l-.2 1.1zm1 4.2c-.5 0-.8-.3-.8-.8s.3-.8.8-.8.8.3.8.8-.3.8-.8.8zm-29.7 6.7c-.2-.2-.6-.4-1.4-.4-1.5 0-2.7 1.1-2.7 3.3 0 1.3.6 1.9 1.7 1.9.3 0 .5-.1.7-.1l.3-1.6h-1.3l.2-1.1h2.5l-.5 3.3c-.2.2-.9.7-2.2.7-1.6 0-2.8-.9-2.8-3 0-3.2 2-4.5 4.2-4.5 1 0 1.6.4 1.8.5-.1-.1-.5 1-.5 1zm2.5 3.6h-.4v.2c0 .7.3 1.1.9 1.1.6 0 1.1-.3 1.2-.4l.3.9c-.2.2-.6.6-1.7.6-1.2 0-2-.6-2-2.2 0-2.1 1.3-3.2 2.7-3.2.8 0 1.3.4 1.3 1.3.1 1.1-.9 1.7-2.3 1.7zm-.3-.8h.1c1 0 1.3-.3 1.3-.8 0-.3-.2-.4-.4-.4-.4-.1-.8.4-1 1.2zm6.4-.9c-.2-.1-.5-.3-1-.3-.4 0-.6.2-.6.4 0 .3.2.4.5.7l.3.2c.6.4.9.8.9 1.5 0 .9-.7 1.6-1.9 1.6-.8 0-1.3-.4-1.6-.5l.4-1.1c.2.2.6.5 1.1.5.4 0 .6-.1.6-.4s-.2-.4-.6-.7l-.1-.3c-.5-.4-.8-.8-.8-1.4 0-.9.8-1.5 1.9-1.5.7 0 1.1.3 1.3.4l-.4.9zm4.3-.2h-1.2l-.3 1.8c-.1.3-.1.6-.1.8 0 .4.2.5.5.5s.4-.1.5-.1l.1.9c-.2.1-.5.2-1.1.2-.8 0-1.4-.4-1.4-1.4 0-.3.1-.6.1-1l.3-1.7h-.7l.2-.9.7-.1.4-1.4h1.2l-.2 1.4h1.2c-.1-.1-.2 1-.2 1zm4.5 4.1h-1.2l.1-.6c-.2.2-.6.7-1.5.7-.8 0-1.5-.6-1.5-2.1 0-2.1 1.3-3.3 2.7-3.3.7 0 1 .3 1.2.4l.3-.3h.6l-.7 5.2zm-2-1c.5 0 .8-.3.9-.4l.4-2.6c-.1-.1-.3-.2-.6-.2-.8 0-1.5.7-1.5 2.2.1.7.3 1 .8 1zm5.6.9c-.1.1-.4.2-.9.2-.7 0-1.2-.3-1.2-1.2 0-.2.1-.6.2-1.3l.8-5.1 1.3-.1-.8 5.2c-.1.6-.2.9-.2 1.1 0 .3.1.4.3.4.2 0 .3-.1.4-.1 0 .1.1.9.1.9zm4.1-4h-1.2l-.2 1.8c-.1.3-.2.6-.2.8 0 .4.2.5.5.5s.4-.1.5-.1l.1.9c-.2.1-.5.2-1.1.2-.8 0-1.4-.4-1.4-1.4 0-.3.1-.6.1-1l.3-1.8h-.7l.2-.9.7-.1.4-1.4h1.2l-.2 1.4h1.2l-.2 1.1zm2.2 1.9h-.4v.2c0 .7.3 1.1.9 1.1.6 0 1.1-.3 1.2-.4l.3.9c-.2.2-.6.6-1.7.6-1.2 0-2-.6-2-2.2 0-2.1 1.3-3.2 2.7-3.2.8 0 1.3.4 1.3 1.3 0 1.1-1 1.7-2.3 1.7zm-.4-.8h.2c1 0 1.3-.3 1.3-.8 0-.3-.2-.4-.4-.4-.4-.1-.8.4-1.1 1.2zm7.9.3l-.4 2.7h-1.3l.4-2.7c.1-.3.1-.6.1-.8 0-.5-.2-.7-.6-.7-.5 0-.8.3-1.1.4l-.6 3.7h-1.3l.8-5.1h1.2l-.1.7c.3-.3.8-.8 1.7-.8.8 0 1.3.5 1.3 1.5 0 .3 0 .6-.1 1.1zm1.6 2.8c-.5 0-.8-.3-.8-.8s.3-.8.8-.8.8.3.8.8-.3.8-.8.8z"/></svg>