<svg xmlns="http://www.w3.org/2000/svg" viewBox="0 0 112.99 118.93"><defs><style>.cls-1{fill:none;stroke:#000;stroke-miterlimit:10;stroke-width:9px;}</style></defs><title>Asset 1</title><g id="Layer_2" data-name="Layer 2"><g id="Layer_1-2" data-name="Layer 1"><path class="cls-1" d="M52.81,105.68S27,105.8,16.08,105C11.32,104.63.59,102.67,6,86.45c4.43-13.34,13.62-26,16.83-30.12"/><polyline class="cls-1" points="22.81 77.18 22.81 56.33 4.63 54.78"/><path class="cls-1" d="M29.55,46.28S39.8,25.56,47.05,16.16c3.16-4.09,12.87-19.23,23.57-6.95,4,4.63,17.11,24,18,29.42"/><polyline class="cls-1" points="72.64 30.84 88.61 38.63 94.86 21.57"/><path class="cls-1" d="M95.81,52.68S104.29,70.23,107,78.73c4.06,12.83-.68,18.53-7.65,21.22-11.8,4.53-26.21,4-31,3.71"/><polyline class="cls-1" points="80.05 89.54 68.31 103.66 80.05 115.8"/></g></g></svg>