<svg xmlns="http://www.w3.org/2000/svg" viewBox="0 0 323.6 104.42"><defs><style>.cls-1{font-size:92.14px;fill:#fff;font-family:DINAlternate-Bold, DIN Alternate;font-weight:700;}.cls-2{fill:none;stroke:#fff;stroke-miterlimit:10;stroke-width:8px;}</style></defs><title>Asset 3</title><g id="Layer_2" data-name="Layer 2"><g id="Layer_1-2" data-name="Layer 1"><text class="cls-1" transform="translate(0 79.14)">Open</text><path class="cls-2" d="M271.89,92.93s-22.12.11-31.47-.59c-4.08-.3-13.27-2-8.66-15.88,3.8-11.44,11.67-22.28,14.43-25.82"/><polyline class="cls-2" points="246.19 68.51 246.19 50.64 230.61 49.32"/><path class="cls-2" d="M252,42s8.78-17.76,15-25.81c2.7-3.51,11-16.48,20.19-6,3.46,4,14.66,20.54,15.41,25.21"/><polyline class="cls-2" points="288.88 28.8 302.56 35.48 307.93 20.86"/><path class="cls-2" d="M308.74,47.52s7.26,15,9.57,22.32c3.49,11-.58,15.88-6.55,18.18-10.11,3.88-22.46,3.44-26.59,3.18"/><polyline class="cls-2" points="295.23 79.1 285.17 91.2 295.23 101.61"/></g></g></svg>